<svg width="262" height="124" viewBox="0 0 262 124" fill="none" xmlns="http://www.w3.org/2000/svg">
<rect width="262" height="124" rx="3" fill="#E5E5E5"/>
<path d="M19.5 20.4395V29H18.0879V22.1152L15.9961 22.8242V21.6582L19.3301 20.4395H19.5ZM28.1309 20.4688V21.2422L24.7207 29H23.2324L26.6367 21.5938H22.2188V20.4688H28.1309ZM30.7617 20V29H29.3555V20H30.7617ZM30.5156 25.5957L30.0586 25.5898C30.0625 25.1523 30.123 24.748 30.2402 24.377C30.3613 24.0059 30.5293 23.6836 30.7441 23.4102C30.9629 23.1328 31.2246 22.9199 31.5293 22.7715C31.834 22.6191 32.1719 22.543 32.543 22.543C32.8555 22.543 33.1367 22.5859 33.3867 22.6719C33.6406 22.7578 33.8594 22.8965 34.043 23.0879C34.2266 23.2754 34.3652 23.5215 34.459 23.8262C34.5566 24.127 34.6055 24.4941 34.6055 24.9277V29H33.1875V24.916C33.1875 24.6113 33.1426 24.3691 33.0527 24.1895C32.9668 24.0098 32.8398 23.8809 32.6719 23.8027C32.5039 23.7207 32.2988 23.6797 32.0566 23.6797C31.8027 23.6797 31.5781 23.7305 31.3828 23.832C31.1914 23.9336 31.0312 24.0723 30.9023 24.248C30.7734 24.4238 30.6758 24.627 30.6094 24.8574C30.5469 25.0879 30.5156 25.334 30.5156 25.5957ZM37.6113 24.0957H38.4551C38.7832 24.0957 39.0547 24.0391 39.2695 23.9258C39.4883 23.8125 39.6504 23.6562 39.7559 23.457C39.8613 23.2578 39.9141 23.0293 39.9141 22.7715C39.9141 22.502 39.8652 22.2715 39.7676 22.0801C39.6738 21.8848 39.5293 21.7344 39.334 21.6289C39.1426 21.5234 38.8984 21.4707 38.6016 21.4707C38.3516 21.4707 38.125 21.5215 37.9219 21.623C37.7227 21.7207 37.5645 21.8613 37.4473 22.0449C37.3301 22.2246 37.2715 22.4395 37.2715 22.6895H35.8535C35.8535 22.2363 35.9727 21.834 36.2109 21.4824C36.4492 21.1309 36.7734 20.8555 37.1836 20.6562C37.5977 20.4531 38.0625 20.3516 38.5781 20.3516C39.1289 20.3516 39.6094 20.4434 40.0195 20.627C40.4336 20.8066 40.7559 21.0762 40.9863 21.4355C41.2168 21.7949 41.332 22.2402 41.332 22.7715C41.332 23.0137 41.2754 23.2598 41.1621 23.5098C41.0488 23.7598 40.8809 23.9883 40.6582 24.1953C40.4355 24.3984 40.1582 24.5645 39.8262 24.6934C39.4941 24.8184 39.1094 24.8809 38.6719 24.8809H37.6113V24.0957ZM37.6113 25.1973V24.4238H38.6719C39.1719 24.4238 39.5977 24.4824 39.9492 24.5996C40.3047 24.7168 40.5938 24.8789 40.8164 25.0859C41.0391 25.2891 41.2012 25.5215 41.3027 25.7832C41.4082 26.0449 41.4609 26.3223 41.4609 26.6152C41.4609 27.0137 41.3887 27.3691 41.2441 27.6816C41.1035 27.9902 40.9023 28.252 40.6406 28.4668C40.3789 28.6816 40.0723 28.8438 39.7207 28.9531C39.373 29.0625 38.9941 29.1172 38.584 29.1172C38.2168 29.1172 37.8652 29.0664 37.5293 28.9648C37.1934 28.8633 36.8926 28.7129 36.627 28.5137C36.3613 28.3105 36.1504 28.0586 35.9941 27.7578C35.8418 27.4531 35.7656 27.1016 35.7656 26.7031H37.1777C37.1777 26.957 37.2363 27.1816 37.3535 27.377C37.4746 27.5684 37.6426 27.7188 37.8574 27.8281C38.0762 27.9375 38.3262 27.9922 38.6074 27.9922C38.9043 27.9922 39.1602 27.9395 39.375 27.834C39.5898 27.7285 39.7539 27.5723 39.8672 27.3652C39.9844 27.1582 40.043 26.9082 40.043 26.6152C40.043 26.2832 39.9785 26.0137 39.8496 25.8066C39.7207 25.5996 39.5371 25.4473 39.2988 25.3496C39.0605 25.248 38.7793 25.1973 38.4551 25.1973H37.6113ZM48.334 24.0195V25.4141C48.334 26.082 48.2676 26.6523 48.1348 27.125C48.0059 27.5938 47.8184 27.9746 47.5723 28.2676C47.3262 28.5605 47.0312 28.7754 46.6875 28.9121C46.3477 29.0488 45.9668 29.1172 45.5449 29.1172C45.209 29.1172 44.8965 29.0742 44.6074 28.9883C44.3223 28.9023 44.0645 28.7676 43.834 28.584C43.6035 28.4004 43.4062 28.1641 43.2422 27.875C43.082 27.582 42.957 27.2324 42.8672 26.8262C42.7812 26.4199 42.7383 25.9492 42.7383 25.4141V24.0195C42.7383 23.3477 42.8047 22.7812 42.9375 22.3203C43.0703 21.8555 43.2598 21.4785 43.5059 21.1895C43.752 20.8965 44.0449 20.6836 44.3848 20.5508C44.7285 20.418 45.1113 20.3516 45.5332 20.3516C45.873 20.3516 46.1855 20.3945 46.4707 20.4805C46.7598 20.5625 47.0176 20.6934 47.2441 20.873C47.4746 21.0527 47.6699 21.2871 47.8301 21.5762C47.9941 21.8613 48.1191 22.207 48.2051 22.6133C48.291 23.0156 48.334 23.4844 48.334 24.0195ZM46.9219 25.6133V23.8086C46.9219 23.4688 46.9023 23.1699 46.8633 22.9121C46.8242 22.6504 46.7656 22.4297 46.6875 22.25C46.6133 22.0664 46.5195 21.918 46.4062 21.8047C46.293 21.6875 46.1641 21.6035 46.0195 21.5527C45.875 21.498 45.7129 21.4707 45.5332 21.4707C45.3145 21.4707 45.1191 21.5137 44.9473 21.5996C44.7754 21.6816 44.6309 21.8145 44.5137 21.998C44.3965 22.1816 44.3066 22.4238 44.2441 22.7246C44.1855 23.0215 44.1562 23.3828 44.1562 23.8086V25.6133C44.1562 25.957 44.1758 26.2598 44.2148 26.5215C44.2539 26.7832 44.3125 27.0078 44.3906 27.1953C44.4688 27.3789 44.5625 27.5312 44.6719 27.6523C44.7852 27.7695 44.9141 27.8555 45.0586 27.9102C45.207 27.9648 45.3691 27.9922 45.5449 27.9922C45.7676 27.9922 45.9648 27.9492 46.1367 27.8633C46.3086 27.7773 46.4531 27.6406 46.5703 27.4531C46.6875 27.2617 46.7754 27.0137 46.834 26.709C46.8926 26.4043 46.9219 26.0391 46.9219 25.6133Z" fill="black"/>
<path d="M21.5 40.55V47.01H22.24V41.24H24.65V40.55H21.5ZM26.76 41.28V49.69H27.53V42.04H32.52V49.65H33.31V41.28H26.76ZM27.27 44.75V45.49H32.85V44.75H27.27ZM27.26 48.29V49.04H32.87V48.29H27.26ZM35.64 42.71V43.47H44.37V42.71H35.64ZM37.64 47.17V47.93H42.3V47.17H37.64ZM39.59 40.61V49.8H40.38V40.61H39.59ZM39.36 42.96C38.56 44.88 36.97 46.74 35.3 47.61C35.47 47.76 35.72 48.04 35.84 48.23C37.57 47.22 39.14 45.31 40.03 43.19L39.36 42.96ZM40.63 42.99L39.96 43.22C40.84 45.32 42.38 47.23 44.15 48.21C44.27 48 44.53 47.7 44.72 47.54C42.99 46.71 41.42 44.89 40.63 42.99ZM45.55 46.26L46.29 47.02C46.45 46.81 46.68 46.51 46.88 46.24C47.39 45.62 48.21 44.52 48.68 43.94C49.02 43.52 49.21 43.44 49.64 43.91C50.1 44.42 50.87 45.39 51.52 46.12C52.2 46.9 53.11 47.92 53.87 48.64L54.51 47.91C53.61 47.11 52.61 46.06 52.01 45.4C51.37 44.71 50.6 43.72 50 43.11C49.34 42.43 48.82 42.53 48.24 43.22C47.64 43.92 46.81 45.06 46.27 45.6C46.01 45.87 45.8 46.07 45.55 46.26ZM60.41 41.15H59.46C59.5 41.34 59.53 41.78 59.54 42.15C59.54 42.58 59.55 43.4 59.55 43.98C59.55 45 59.67 46.94 59.67 47.68C59.67 48.37 59.31 48.72 58.58 48.72C57.61 48.72 57.05 48.41 57.05 47.86C57.05 47.3 57.64 46.95 58.68 46.95C60.43 46.95 62.07 47.93 63.07 48.93L63.55 48.18C62.53 47.25 60.75 46.25 58.77 46.25C57.04 46.25 56.26 46.98 56.26 47.89C56.26 49.03 57.27 49.46 58.66 49.46C59.99 49.46 60.49 48.76 60.49 47.95C60.49 47.07 60.33 45.07 60.33 43.98C60.33 43.29 60.33 42.6 60.33 42.15C60.34 41.85 60.37 41.37 60.41 41.15ZM59.89 43.17V43.91C60.61 43.91 62.24 43.84 63.32 43.74L63.29 42.99C62.21 43.12 60.58 43.17 59.89 43.17ZM72.19 45.68C72.19 47.47 70.48 48.42 68.05 48.73L68.51 49.49C71.1 49.09 73.04 47.88 73.04 45.71C73.04 44.28 71.99 43.49 70.57 43.49C69.41 43.49 68.28 43.81 67.58 43.97C67.27 44.03 66.94 44.1 66.66 44.12L66.91 45.04C67.15 44.94 67.45 44.83 67.76 44.74C68.34 44.57 69.33 44.24 70.48 44.24C71.51 44.24 72.19 44.83 72.19 45.68ZM67.99 41.17L67.87 41.93C69 42.13 71.01 42.33 72.12 42.41L72.24 41.64C71.27 41.63 69.1 41.42 67.99 41.17ZM77.34 41.99V42.8C78.13 42.87 78.99 42.91 79.99 42.91C80.91 42.91 82 42.84 82.68 42.79V41.97C81.96 42.05 80.95 42.11 79.99 42.11C78.98 42.11 78.06 42.07 77.34 41.99ZM77.74 46.02L76.93 45.94C76.84 46.34 76.73 46.81 76.73 47.33C76.73 48.59 77.91 49.25 79.94 49.25C81.36 49.25 82.63 49.1 83.35 48.91L83.34 48.05C82.58 48.29 81.29 48.44 79.92 48.44C78.32 48.44 77.54 47.92 77.54 47.15C77.54 46.78 77.62 46.41 77.74 46.02ZM87.61 41.54L87.65 42.36C87.87 42.34 88.16 42.31 88.42 42.29C88.85 42.25 90.6 42.17 91.05 42.14C90.41 42.7 88.83 44.09 87.74 44.85C87.23 44.91 86.55 44.99 86.01 45.05L86.08 45.8C87.28 45.6 88.62 45.44 89.69 45.35C89.17 45.66 88.52 46.39 88.52 47.24C88.52 48.78 89.85 49.54 92.3 49.44L92.46 48.62C92.1 48.65 91.62 48.67 91.03 48.6C90.11 48.47 89.3 48.13 89.3 47.12C89.3 46.18 90.26 45.36 91.23 45.22C91.83 45.13 92.79 45.12 93.77 45.17L93.76 44.43C92.33 44.43 90.53 44.56 89.01 44.73C89.81 44.09 91.25 42.88 92 42.27C92.14 42.15 92.4 41.98 92.53 41.89L92.03 41.32C91.91 41.36 91.72 41.4 91.48 41.42C90.91 41.48 88.85 41.57 88.41 41.57C88.1 41.57 87.86 41.56 87.61 41.54ZM99.67 46.59H100.32L100.52 42.71L100.55 41.52H99.44L99.47 42.71L99.67 46.59ZM100 49.05C100.35 49.05 100.64 48.8 100.64 48.4C100.64 48 100.35 47.73 100 47.73C99.64 47.73 99.35 48 99.35 48.4C99.35 48.8 99.64 49.05 100 49.05ZM17.44 53.43V61.77H18.18V53.43H17.44ZM15.5 55.53V56.24H19.94V55.53H15.5ZM17.47 55.81C17.04 57.08 16.1 58.69 15.28 59.51C15.41 59.7 15.6 60.01 15.68 60.22C16.54 59.28 17.48 57.48 17.96 56.04L17.47 55.81ZM19.26 52.67C18.4 53.07 16.83 53.41 15.48 53.62C15.57 53.78 15.67 54.03 15.71 54.2C17.11 54.01 18.74 53.67 19.82 53.23L19.26 52.67ZM18.14 56.82L17.73 57.18C18.13 57.55 19.11 58.58 19.44 59.02L19.9 58.45C19.64 58.18 18.47 57.08 18.14 56.82ZM21.39 52.81C21.05 55.28 20.35 58.64 19.73 60.74L20.46 60.9C21.08 58.81 21.81 55.51 22.23 52.96L21.39 52.81ZM18.87 60.59L19.05 61.37C20.35 61.22 22.19 60.99 23.94 60.76L23.92 60.06C22.04 60.28 20.09 60.48 18.87 60.59ZM22.33 57.72C23.01 59.03 23.66 60.75 23.86 61.8L24.64 61.55C24.42 60.48 23.74 58.79 23.03 57.5L22.33 57.72ZM29.42 53.14L28.47 53.06C28.49 53.27 28.47 53.61 28.43 53.89C28.36 54.41 28.1 55.67 27.86 56.59C27.48 58 26.78 60.03 26.18 61.07L27.05 61.36C27.58 60.27 28.25 58.2 28.61 56.78C28.89 55.78 29.1 54.65 29.25 53.93C29.29 53.74 29.36 53.36 29.42 53.14ZM27.21 54.81C26.84 54.81 26.48 54.79 26.01 54.73L26.03 55.51C26.4 55.54 26.75 55.55 27.19 55.55C28.27 55.55 29.78 55.38 31.02 55.1V54.32C29.78 54.63 28.31 54.81 27.21 54.81ZM30.37 56.18V56.93C30.98 56.86 31.6 56.82 32.22 56.82C32.81 56.82 33.39 56.88 33.91 56.94L33.93 56.18C33.39 56.12 32.78 56.1 32.2 56.1C31.56 56.1 30.89 56.13 30.37 56.18ZM30.57 58.61L29.83 58.54C29.74 58.96 29.68 59.34 29.68 59.72C29.68 60.71 30.54 61.19 32.11 61.19C32.84 61.19 33.51 61.13 34.05 61.05L34.08 60.25C33.46 60.37 32.78 60.44 32.12 60.44C30.7 60.44 30.43 59.98 30.43 59.51C30.43 59.25 30.49 58.94 30.57 58.61ZM39.23 53.17L38.33 53.13C38.35 53.4 38.33 53.64 38.29 53.96C38.17 54.92 37.64 57.4 36.88 58.89L37.62 59.15C37.72 58.98 37.81 58.84 37.93 58.69C38.59 57.9 39.7 57.49 40.89 57.49C42.06 57.49 42.67 58.07 42.67 58.81C42.67 60.46 40.43 60.85 38.11 60.53L38.32 61.33C41.36 61.65 43.49 60.88 43.49 58.79C43.49 57.62 42.56 56.81 40.97 56.81C39.93 56.81 39.03 57.06 38.16 57.67C38.5 56.74 38.9 54.81 39.04 54.01C39.1 53.75 39.15 53.44 39.23 53.17ZM36.12 54.45L36.13 55.23C36.7 55.28 37.34 55.33 38.02 55.33C39.39 55.33 41.43 55.13 42.85 54.88L42.83 54.11C41.26 54.46 39.29 54.61 38.01 54.61C37.41 54.61 36.65 54.54 36.12 54.45ZM48.98 55.09L48.99 55.85C49.57 55.89 50.09 55.91 50.67 55.91C51.84 55.91 53.06 55.83 54.12 55.65V54.88C53.11 55.09 51.88 55.18 50.68 55.18C50.09 55.18 49.55 55.15 48.98 55.09ZM52.48 53.3H51.58C51.61 53.48 51.62 53.74 51.62 53.92C51.62 54.27 51.63 54.9 51.63 55.59C51.63 56.91 51.76 58.78 51.76 59.5C51.76 60.17 51.52 60.59 50.68 60.59C49.95 60.59 49.46 60.32 49.46 59.8C49.46 59.32 49.98 58.99 50.73 58.99C52 58.99 53.01 59.67 54.06 60.65L54.49 59.99C53.65 59.23 52.48 58.38 50.8 58.38C49.48 58.38 48.74 59.04 48.74 59.88C48.74 60.78 49.47 61.32 50.81 61.32C52.16 61.32 52.54 60.52 52.54 59.7C52.54 58.67 52.39 57.11 52.39 55.57C52.39 54.98 52.4 54.27 52.42 53.9C52.43 53.71 52.45 53.5 52.48 53.3ZM47.55 53.37L46.67 53.29C46.66 53.51 46.64 53.77 46.6 54.01C46.48 54.83 46.14 56.74 46.14 58.21C46.14 59.56 46.33 60.66 46.52 61.38L47.23 61.32C47.22 61.22 47.21 61.07 47.2 60.97C47.19 60.86 47.21 60.66 47.24 60.52C47.34 60.03 47.71 59.01 47.96 58.31L47.55 57.99C47.38 58.4 47.13 59.01 46.97 59.47C46.9 58.98 46.87 58.56 46.87 58.07C46.87 56.95 47.17 54.97 47.37 54.04C47.41 53.86 47.49 53.53 47.55 53.37ZM59.71 53.09L58.88 53.06C58.88 53.19 58.87 53.37 58.85 53.55C58.76 54.41 58.56 56.03 58.56 57.4C58.56 58.67 58.83 60.09 59.12 60.98L59.85 60.76C59.54 59.82 59.26 58.62 59.26 57.32C59.26 55.95 59.43 54.37 59.6 53.53C59.63 53.39 59.67 53.21 59.71 53.09ZM58.1 54.32C57.67 54.32 56.8 54.26 56.45 54.2L56.47 54.95C56.88 54.97 57.66 55.01 58.09 55.01C59.58 55.01 61.55 54.86 62.99 54.61L62.98 53.87C61.6 54.18 59.86 54.32 58.1 54.32ZM62.27 55.5L61.47 55.3C61.46 55.46 61.41 55.73 61.37 55.88C60.91 57.5 60.09 58.58 59.2 59.36C58.56 59.92 57.91 60.2 57.41 60.2C57.04 60.2 56.84 60 56.84 59.59C56.84 58.67 57.74 57.57 58.87 57.07C59.38 56.84 60.12 56.6 60.96 56.6C62.45 56.6 63.27 57.45 63.27 58.42C63.27 59.71 62.15 60.64 60.35 60.84L60.78 61.51C63.1 61.14 64.05 59.89 64.05 58.46C64.05 57.06 62.86 55.96 60.97 55.96C60.32 55.96 59.51 56.11 58.84 56.37C57.36 56.94 56.09 58.35 56.09 59.72C56.09 60.57 56.61 60.97 57.27 60.97C57.98 60.97 58.78 60.6 59.42 60.11C60.47 59.3 61.47 57.91 62.06 56.06C62.12 55.9 62.21 55.63 62.27 55.5ZM65.96 54.7L66.02 55.45C66.39 55.46 66.82 55.47 67.19 55.47C68.41 55.48 69.72 55.26 70.7 54.99L70.68 54.25C69.53 54.63 68.27 54.76 67.19 54.76C66.76 54.76 66.33 54.74 65.96 54.7ZM69.51 53.07L68.63 52.98C68.6 53.68 68.38 54.56 68.16 55.19C67.75 56.37 66.82 58.15 65.93 59.19L66.7 59.59C67.53 58.47 68.45 56.65 68.93 55.21C69.17 54.5 69.38 53.56 69.51 53.07ZM71.87 56.16H71.08C71.12 57.26 71.23 59.05 71.23 59.81C71.23 60.35 70.95 60.79 70.12 60.79C69.34 60.79 68.95 60.47 68.95 60.01C68.95 59.55 69.45 59.21 70.19 59.21C71.66 59.21 72.81 60.1 73.58 60.8L74 60.12C73.18 59.41 71.89 58.57 70.21 58.57C69.09 58.57 68.22 59.15 68.22 60.07C68.22 61.07 69.11 61.51 70.21 61.51C71.45 61.51 71.96 60.86 71.96 60.06C71.96 59.4 71.87 57.88 71.85 57.23C71.84 56.87 71.84 56.57 71.87 56.16ZM73.87 56.42L74.32 55.76C73.84 55.4 72.71 54.75 71.98 54.44L71.58 55.04C72.24 55.35 73.33 55.96 73.87 56.42ZM79.42 53.14L78.47 53.06C78.49 53.27 78.47 53.61 78.43 53.89C78.36 54.41 78.1 55.67 77.86 56.59C77.48 58 76.78 60.03 76.18 61.07L77.05 61.36C77.58 60.27 78.25 58.2 78.61 56.78C78.89 55.78 79.1 54.65 79.25 53.93C79.29 53.74 79.36 53.36 79.42 53.14ZM77.21 54.81C76.84 54.81 76.48 54.79 76.01 54.73L76.03 55.51C76.4 55.54 76.75 55.55 77.19 55.55C78.27 55.55 79.78 55.38 81.02 55.1V54.32C79.78 54.63 78.31 54.81 77.21 54.81ZM80.37 56.18V56.93C80.98 56.86 81.6 56.82 82.22 56.82C82.81 56.82 83.39 56.88 83.91 56.94L83.93 56.18C83.39 56.12 82.78 56.1 82.2 56.1C81.56 56.1 80.89 56.13 80.37 56.18ZM80.57 58.61L79.83 58.54C79.74 58.96 79.68 59.34 79.68 59.72C79.68 60.71 80.54 61.19 82.11 61.19C82.84 61.19 83.51 61.13 84.05 61.05L84.08 60.25C83.46 60.37 82.78 60.44 82.12 60.44C80.7 60.44 80.43 59.98 80.43 59.51C80.43 59.25 80.49 58.94 80.57 58.61ZM89.6 53.1L88.78 53.03C88.75 53.5 88.61 54.1 88.39 54.65C88.05 55.5 87.38 56.66 85.94 58.04L86.63 58.55C86.96 58.14 87.24 57.78 87.53 57.5C87.99 57.09 88.62 56.77 89.26 56.77C89.78 56.77 90.18 57.04 90.19 57.62C90.2 58.14 90.19 59.17 90.15 59.7H90.92C90.91 59.08 90.89 57.93 90.89 57.41C90.89 56.6 90.29 56.14 89.52 56.14C89.08 56.14 88.51 56.28 88.12 56.51C88.52 55.99 88.89 55.32 89.14 54.71C89.4 54.04 89.51 53.49 89.6 53.1ZM86.17 54.18V54.93C86.73 54.97 87.39 54.99 87.82 54.99C89.09 54.99 90.95 54.9 92.35 54.69V53.95C90.94 54.2 89.21 54.28 87.86 54.28C87.4 54.28 86.71 54.25 86.17 54.18ZM93.81 56.59L93.49 55.85C93.21 55.99 92.96 56.1 92.66 56.24C92 56.55 91.19 56.86 90.24 57.35C89.05 57.96 87.81 58.71 87.81 59.93C87.81 61.14 88.96 61.45 90.38 61.45C91.25 61.45 92.36 61.37 93.12 61.28L93.15 60.47C92.27 60.63 91.19 60.72 90.41 60.72C89.38 60.72 88.61 60.6 88.61 59.82C88.61 59.13 89.31 58.59 90.3 58.07C91.27 57.57 92.22 57.19 92.93 56.91C93.2 56.81 93.56 56.67 93.81 56.59ZM99.66 54.87V55.58H103.89V54.87H99.66ZM103.57 54.87V55.03C103.48 59.12 103.37 60.58 103.1 60.89C103.01 61.02 102.9 61.05 102.73 61.04C102.52 61.04 102 61.04 101.42 61C101.55 61.19 101.63 61.5 101.65 61.72C102.18 61.74 102.72 61.75 103.03 61.72C103.35 61.69 103.56 61.61 103.76 61.34C104.09 60.91 104.18 59.48 104.28 55.25C104.28 55.15 104.29 54.87 104.29 54.87H103.57ZM101.32 52.61C101.31 56.25 101.37 59.61 98.7 61.27C98.89 61.39 99.14 61.64 99.25 61.82C102.03 60 102.04 56.44 102.05 52.61H101.32ZM96.06 53.09V60.24H96.73V53.78H98.62V59.6H99.32V53.09H96.06ZM95.34 60.06L95.47 60.82C96.67 60.55 98.35 60.16 99.94 59.78L99.87 59.1C98.21 59.47 96.45 59.84 95.34 60.06ZM96.41 55.24V55.92H98.95V55.24H96.41ZM96.41 57.38V58.05H98.95V57.38H96.41ZM112.61 53.21H111.67C111.71 53.36 111.75 53.58 111.77 53.8C111.8 54.22 111.84 55.77 111.84 56.41C111.84 58.33 111.79 59.47 110.72 60.4C110.47 60.65 110.06 60.9 109.75 61.03L110.48 61.59C112.6 60.35 112.6 58.71 112.6 56.42C112.6 55.86 112.56 54.17 112.57 53.8C112.57 53.57 112.58 53.37 112.61 53.21ZM108.95 55.28V56.07C109.39 56.11 110.09 56.14 110.58 56.14C111.85 56.14 113.25 56.05 114.22 55.89V55.08C113.22 55.31 111.8 55.39 110.57 55.39C110.02 55.39 109.39 55.35 108.95 55.28ZM107.55 53.36L106.62 53.26C106.61 53.44 106.6 53.71 106.57 53.93C106.45 54.77 106.19 56.3 106.19 57.93C106.19 59.18 106.51 60.48 106.71 61.1L107.4 61.02C107.39 60.91 107.37 60.78 107.37 60.68C107.36 60.56 107.38 60.37 107.41 60.23C107.52 59.73 107.82 58.71 108.06 58.02L107.63 57.76C107.45 58.25 107.23 58.86 107.1 59.29C106.71 57.65 107.06 55.46 107.38 54.01C107.42 53.82 107.49 53.54 107.55 53.36ZM117.38 53.64L117.4 54.46C117.62 54.43 117.84 54.42 118.07 54.4C118.59 54.37 120.59 54.29 121.12 54.26C120.62 54.71 119.36 55.76 118.8 56.22C118.23 56.71 116.94 57.79 116.11 58.47L116.69 59.05C117.95 57.76 118.85 57.06 120.51 57.06C121.82 57.06 122.76 57.79 122.76 58.78C122.76 60.03 121.69 60.73 119.99 60.73C119.2 60.73 118.65 60.44 118.65 59.95C118.65 59.6 119 59.32 119.46 59.32C120.26 59.32 120.75 59.93 120.81 60.78L121.53 60.66C121.46 59.65 120.79 58.71 119.46 58.71C118.54 58.71 117.92 59.33 117.92 60.01C117.92 60.85 118.75 61.44 120.11 61.44C122.23 61.44 123.56 60.39 123.56 58.78C123.56 57.43 122.37 56.44 120.71 56.44C120.26 56.44 119.78 56.49 119.32 56.64C120.1 56 121.46 54.83 121.95 54.45C122.14 54.3 122.34 54.17 122.52 54.05L122.06 53.46C121.95 53.5 121.81 53.52 121.51 53.55C120.98 53.6 118.61 53.67 118.08 53.67C117.88 53.67 117.6 53.66 117.38 53.64ZM129.42 53.14L128.47 53.06C128.49 53.27 128.47 53.61 128.43 53.89C128.36 54.41 128.1 55.67 127.86 56.59C127.48 58 126.78 60.03 126.18 61.07L127.05 61.36C127.58 60.27 128.25 58.2 128.61 56.78C128.89 55.78 129.1 54.65 129.25 53.93C129.29 53.74 129.36 53.36 129.42 53.14ZM127.21 54.81C126.84 54.81 126.48 54.79 126.01 54.73L126.03 55.51C126.4 55.54 126.75 55.55 127.19 55.55C128.27 55.55 129.78 55.38 131.02 55.1V54.32C129.78 54.63 128.31 54.81 127.21 54.81ZM130.37 56.18V56.93C130.98 56.86 131.6 56.82 132.22 56.82C132.81 56.82 133.39 56.88 133.91 56.94L133.93 56.18C133.39 56.12 132.78 56.1 132.2 56.1C131.56 56.1 130.89 56.13 130.37 56.18ZM130.57 58.61L129.83 58.54C129.74 58.96 129.68 59.34 129.68 59.72C129.68 60.71 130.54 61.19 132.11 61.19C132.84 61.19 133.51 61.13 134.05 61.05L134.08 60.25C133.46 60.37 132.78 60.44 132.12 60.44C130.7 60.44 130.43 59.98 130.43 59.51C130.43 59.25 130.49 58.94 130.57 58.61ZM141.69 53.26L140.82 53.18C140.83 53.41 140.8 53.74 140.76 53.94C140.51 55.4 139.84 57.23 139.18 58.25C138.67 59.06 137.97 59.91 137.32 59.91C136.87 59.91 136.58 59.51 136.58 58.85C136.58 57.95 137.12 56.88 137.97 56.27C138.75 55.69 139.62 55.36 140.59 55.36C142.2 55.36 143.26 56.44 143.26 57.91C143.26 59.46 142.11 60.55 140.02 60.74L140.48 61.45C142.63 61.15 144.06 59.94 144.06 57.94C144.06 55.99 142.64 54.67 140.68 54.67C139.65 54.67 138.67 54.93 137.68 55.6C136.62 56.31 135.85 57.64 135.85 58.9C135.85 60.07 136.49 60.7 137.25 60.7C138.16 60.7 138.89 59.95 139.65 58.89C140.45 57.79 141.15 55.7 141.51 54.05C141.56 53.86 141.62 53.51 141.69 53.26ZM137.59 53.72L136.76 53.98C136.89 54.24 137 54.57 137.1 54.89C137.48 56.14 138.06 57.67 138.55 58.45C138.93 59.1 139.3 59.59 139.7 60.03L140.33 59.52C139.85 59.06 139.38 58.4 139.04 57.82C138.62 57.12 138.06 55.58 137.8 54.6C137.72 54.32 137.64 53.99 137.59 53.72ZM149.55 54.25L149.56 55.06C150.65 55.18 152.59 55.18 153.66 55.06V54.25C152.67 54.4 150.64 54.44 149.55 54.25ZM149.94 58.33L149.22 58.26C149.11 58.74 149.06 59.1 149.06 59.43C149.06 60.37 149.81 60.93 151.48 60.93C152.52 60.93 153.36 60.85 153.98 60.72L153.96 59.88C153.16 60.07 152.38 60.15 151.49 60.15C150.12 60.15 149.8 59.7 149.8 59.24C149.8 58.97 149.85 58.69 149.94 58.33ZM147.65 53.48L146.76 53.41C146.75 53.63 146.72 53.88 146.69 54.11C146.57 54.94 146.24 56.65 146.24 58.12C146.24 59.48 146.41 60.63 146.61 61.34L147.32 61.29C147.31 61.18 147.3 61.04 147.29 60.94C147.29 60.82 147.31 60.63 147.34 60.49C147.43 60.01 147.8 58.96 148.05 58.25L147.63 57.92C147.46 58.33 147.23 58.93 147.06 59.38C147 58.89 146.97 58.47 146.97 57.99C146.97 56.86 147.28 55.08 147.47 54.15C147.51 53.97 147.59 53.65 147.65 53.48ZM155.49 55.62V56.32H160.25V55.62H155.49ZM160.92 53.79V59.32H161.65V53.79H160.92ZM157.59 53.45V61.79H158.33V53.45H157.59ZM163.38 52.79V60.81C163.38 61 163.3 61.06 163.11 61.06C162.92 61.07 162.3 61.07 161.58 61.05C161.7 61.27 161.82 61.6 161.86 61.81C162.78 61.82 163.34 61.8 163.67 61.67C163.99 61.55 164.12 61.32 164.12 60.8V52.79H163.38ZM159.58 52.66C158.64 53.08 156.9 53.42 155.42 53.63C155.51 53.79 155.62 54.05 155.65 54.23C157.17 54.03 158.98 53.7 160.14 53.24L159.58 52.66ZM157.56 55.94C157.12 57.28 156.15 58.87 155.27 59.71C155.4 59.9 155.59 60.2 155.68 60.42C156.61 59.47 157.59 57.68 158.1 56.16L157.56 55.94ZM158.23 56.97L157.82 57.37C158.28 57.76 159.37 58.81 159.78 59.27L160.22 58.64C159.9 58.36 158.61 57.24 158.23 56.97ZM166.95 53.31V54.03H173.42V53.31H166.95ZM166.95 55.64V56.35H173.41V55.64H166.95ZM166.9 58.03V58.74H173.43V58.03H166.9ZM166.53 53.31V56.93C166.53 58.34 166.42 60.12 165.32 61.36C165.48 61.46 165.78 61.71 165.9 61.86C167.09 60.53 167.27 58.46 167.27 56.94V53.31H166.53ZM173.12 53.31V60.78C173.12 60.97 173.05 61.03 172.86 61.04C172.67 61.04 171.99 61.05 171.28 61.02C171.39 61.22 171.51 61.55 171.54 61.75C172.49 61.76 173.07 61.75 173.41 61.63C173.74 61.5 173.86 61.27 173.86 60.78V53.31H173.12ZM169.67 53.58V61.71H170.43V53.58H169.67ZM175.78 54.42L175.87 55.3C176.95 55.07 179.5 54.82 180.57 54.71C179.66 55.25 178.71 56.53 178.71 58.08C178.71 60.32 180.81 61.3 182.66 61.37L182.95 60.55C181.33 60.49 179.5 59.86 179.5 57.91C179.5 56.73 180.37 55.2 181.8 54.74C182.31 54.6 183.18 54.58 183.76 54.59L183.75 53.79C183.08 53.81 182.15 53.87 181.05 53.96C179.21 54.12 177.32 54.3 176.68 54.37C176.48 54.39 176.16 54.41 175.78 54.42ZM182.31 55.81L181.81 56.03C182.11 56.45 182.39 56.96 182.62 57.44L183.14 57.21C182.92 56.76 182.54 56.14 182.31 55.81ZM183.4 55.39L182.91 55.62C183.22 56.04 183.52 56.54 183.76 57.02L184.27 56.77C184.04 56.33 183.65 55.72 183.4 55.39ZM186.79 54.15L186.84 54.88C188.27 55.02 189.67 55.02 190.68 54.92C191.48 54.85 192.33 54.68 192.98 54.49L192.87 53.76C192.15 54 191.33 54.17 190.51 54.24C189.49 54.34 188.18 54.32 186.79 54.15ZM186.59 56.2L186.64 56.95C188.36 57.08 190.21 57.05 191.44 56.89C192.28 56.79 193.04 56.64 193.59 56.49L193.46 55.75C192.93 55.91 192.12 56.11 191.17 56.21C190 56.35 188.3 56.38 186.59 56.2ZM190.01 54.02C190.15 54.52 190.3 55.05 190.55 55.74C190.84 56.55 191.26 57.51 191.81 58.37C191.5 58.33 190.85 58.26 190.31 58.21L190.25 58.82C190.94 58.89 191.87 58.99 192.43 59.13L192.85 58.52C192.7 58.39 192.58 58.25 192.47 58.09C191.95 57.32 191.51 56.36 191.24 55.58C190.99 54.87 190.68 53.86 190.58 53.02L189.73 53.13C189.84 53.42 189.93 53.73 190.01 54.02ZM188.05 58.36L187.27 58.19C187.04 58.63 186.87 59.05 186.87 59.62C186.89 60.91 187.99 61.49 189.94 61.49C190.8 61.49 191.58 61.43 192.28 61.31L192.32 60.52C191.59 60.66 190.86 60.73 189.93 60.73C188.36 60.73 187.63 60.31 187.63 59.49C187.63 59.04 187.81 58.7 188.05 58.36ZM197.185 53.64L197.205 54.46C197.425 54.43 197.645 54.42 197.875 54.4C198.395 54.37 200.395 54.29 200.925 54.26C200.425 54.71 199.165 55.76 198.605 56.22C198.035 56.71 196.745 57.79 195.915 58.47L196.495 59.05C197.755 57.76 198.655 57.06 200.315 57.06C201.625 57.06 202.565 57.79 202.565 58.78C202.565 60.03 201.495 60.73 199.795 60.73C199.005 60.73 198.455 60.44 198.455 59.95C198.455 59.6 198.805 59.32 199.265 59.32C200.065 59.32 200.555 59.93 200.615 60.78L201.335 60.66C201.265 59.65 200.595 58.71 199.265 58.71C198.345 58.71 197.725 59.33 197.725 60.01C197.725 60.85 198.555 61.44 199.915 61.44C202.035 61.44 203.365 60.39 203.365 58.78C203.365 57.43 202.175 56.44 200.515 56.44C200.065 56.44 199.585 56.49 199.125 56.64C199.905 56 201.265 54.83 201.755 54.45C201.945 54.3 202.145 54.17 202.325 54.05L201.865 53.46C201.755 53.5 201.615 53.52 201.315 53.55C200.785 53.6 198.415 53.67 197.885 53.67C197.685 53.67 197.405 53.66 197.185 53.64ZM210.215 53.15H209.265C209.305 53.34 209.335 53.78 209.345 54.15C209.345 54.58 209.355 55.4 209.355 55.98C209.355 57 209.475 58.94 209.475 59.68C209.475 60.37 209.115 60.72 208.385 60.72C207.415 60.72 206.855 60.41 206.855 59.86C206.855 59.3 207.445 58.95 208.485 58.95C210.235 58.95 211.875 59.93 212.875 60.93L213.355 60.18C212.335 59.25 210.555 58.25 208.575 58.25C206.845 58.25 206.065 58.98 206.065 59.89C206.065 61.03 207.075 61.46 208.465 61.46C209.795 61.46 210.295 60.76 210.295 59.95C210.295 59.07 210.135 57.07 210.135 55.98C210.135 55.29 210.135 54.6 210.135 54.15C210.145 53.85 210.175 53.37 210.215 53.15ZM209.695 55.17V55.91C210.415 55.91 212.045 55.84 213.125 55.74L213.095 54.99C212.015 55.12 210.385 55.17 209.695 55.17ZM221.995 57.68C221.995 59.47 220.285 60.42 217.855 60.73L218.315 61.49C220.905 61.09 222.845 59.88 222.845 57.71C222.845 56.28 221.795 55.49 220.375 55.49C219.215 55.49 218.085 55.81 217.385 55.97C217.075 56.03 216.745 56.1 216.465 56.12L216.715 57.04C216.955 56.94 217.255 56.83 217.565 56.74C218.145 56.57 219.135 56.24 220.285 56.24C221.315 56.24 221.995 56.83 221.995 57.68ZM217.795 53.17L217.675 53.93C218.805 54.13 220.815 54.33 221.925 54.41L222.045 53.64C221.075 53.63 218.905 53.42 217.795 53.17ZM229.355 54.25L229.365 55.06C230.455 55.18 232.395 55.18 233.465 55.06V54.25C232.475 54.4 230.445 54.44 229.355 54.25ZM229.745 58.33L229.025 58.26C228.915 58.74 228.865 59.1 228.865 59.43C228.865 60.37 229.615 60.93 231.285 60.93C232.325 60.93 233.165 60.85 233.785 60.72L233.765 59.88C232.965 60.07 232.185 60.15 231.295 60.15C229.925 60.15 229.605 59.7 229.605 59.24C229.605 58.97 229.655 58.69 229.745 58.33ZM227.455 53.48L226.565 53.41C226.555 53.63 226.525 53.88 226.495 54.11C226.375 54.94 226.045 56.65 226.045 58.12C226.045 59.48 226.215 60.63 226.415 61.34L227.125 61.29C227.115 61.18 227.105 61.04 227.095 60.94C227.095 60.82 227.115 60.63 227.145 60.49C227.235 60.01 227.605 58.96 227.855 58.25L227.435 57.92C227.265 58.33 227.035 58.93 226.865 59.38C226.805 58.89 226.775 58.47 226.775 57.99C226.775 56.86 227.085 55.08 227.275 54.15C227.315 53.97 227.395 53.65 227.455 53.48ZM235.765 54.7L235.825 55.45C236.195 55.46 236.625 55.47 236.995 55.47C238.215 55.48 239.525 55.26 240.505 54.99L240.485 54.25C239.335 54.63 238.075 54.76 236.995 54.76C236.565 54.76 236.135 54.74 235.765 54.7ZM239.315 53.07L238.435 52.98C238.405 53.68 238.185 54.56 237.965 55.19C237.555 56.37 236.625 58.15 235.735 59.19L236.505 59.59C237.335 58.47 238.255 56.65 238.735 55.21C238.975 54.5 239.185 53.56 239.315 53.07ZM241.675 56.16H240.885C240.925 57.26 241.035 59.05 241.035 59.81C241.035 60.35 240.755 60.79 239.925 60.79C239.145 60.79 238.755 60.47 238.755 60.01C238.755 59.55 239.255 59.21 239.995 59.21C241.465 59.21 242.615 60.1 243.385 60.8L243.805 60.12C242.985 59.41 241.695 58.57 240.015 58.57C238.895 58.57 238.025 59.15 238.025 60.07C238.025 61.07 238.915 61.51 240.015 61.51C241.255 61.51 241.765 60.86 241.765 60.06C241.765 59.4 241.675 57.88 241.655 57.23C241.645 56.87 241.645 56.57 241.675 56.16ZM243.675 56.42L244.125 55.76C243.645 55.4 242.515 54.75 241.785 54.44L241.385 55.04C242.045 55.35 243.135 55.96 243.675 56.42ZM18.38 65.11L17.51 65.08C17.49 65.36 17.47 65.64 17.43 65.94C17.31 66.76 17.12 68.23 17.12 69.18C17.12 69.83 17.17 70.39 17.22 70.77L18 70.71C17.93 70.21 17.93 69.86 17.98 69.48C18.1 68.17 19.26 66.35 20.51 66.35C21.56 66.35 22.09 67.49 22.09 69.07C22.09 71.58 20.4 72.46 18.22 72.79L18.7 73.51C21.17 73.06 22.92 71.83 22.92 69.06C22.92 66.96 21.96 65.62 20.64 65.62C19.37 65.62 18.33 66.87 17.92 67.9C17.98 67.2 18.17 65.85 18.38 65.11ZM30.72 65.07H29.87C29.9 65.2 29.91 65.5 29.91 65.67C29.91 66.37 29.91 67.42 29.91 68.32C29.91 69.2 30.01 71.12 30.01 71.89C30.01 72.59 29.52 72.76 28.94 72.76C27.95 72.76 27.56 72.42 27.56 71.95C27.56 71.49 28.07 71.12 29.03 71.12C30.81 71.12 32.29 72.12 33.19 72.95L33.65 72.24C32.88 71.61 31.23 70.47 29.12 70.47C27.68 70.47 26.81 71.08 26.81 71.99C26.81 72.96 27.6 73.47 29.04 73.47C30.34 73.47 30.8 72.76 30.8 72.06C30.8 71.39 30.65 69.64 30.65 68.32C30.65 67.48 30.65 66.14 30.67 65.74C30.68 65.44 30.7 65.24 30.72 65.07ZM26.9 66.15L26.91 66.89C27.54 66.97 28.77 67.06 29.46 67.06C30.8 67.06 32.23 66.93 33.36 66.8V66.07C32.06 66.28 30.72 66.37 29.45 66.37C28.79 66.37 27.54 66.27 26.9 66.15ZM26.85 68.28L26.86 69.03C27.57 69.11 28.67 69.16 29.36 69.16C30.86 69.16 32.08 69.09 33.44 68.92V68.17C32.14 68.36 30.81 68.46 29.36 68.46C28.7 68.46 27.56 68.39 26.85 68.28ZM41.27 65.08H40.35C40.37 65.17 40.4 65.45 40.42 65.72C40.45 66.27 40.46 68.26 40.46 68.7L41.22 69.09C41.21 68.29 41.19 66.36 41.22 65.71C41.22 65.59 41.25 65.2 41.27 65.08ZM35.95 66.48L35.97 67.25C37.48 67.14 39.62 67.07 41.34 67.07C42.81 67.07 43.71 67.09 44.27 67.12L44.28 66.38C43.81 66.37 42.57 66.37 41.35 66.37C39.81 66.37 37.31 66.46 35.95 66.48ZM41.2 69.38L40.65 69.1C40.81 70.17 40.41 70.69 39.79 70.69C39.24 70.69 38.77 70.33 38.77 69.7C38.77 69.05 39.26 68.64 39.79 68.64C40.33 68.64 40.77 69.02 40.77 69.92C40.77 71.57 39.71 72.46 37.89 72.89L38.56 73.54C40.88 72.85 41.54 71.35 41.54 69.99C41.54 68.84 40.95 67.98 39.79 67.98C38.84 67.98 38.02 68.72 38.02 69.71C38.02 70.8 38.83 71.39 39.67 71.39C40.58 71.39 41.2 70.72 41.2 69.38ZM48.49 73.86V67.4H47.75V73.17H45.34V73.86H48.49ZM15.5859 80.4316V79.7754C15.5859 79.5332 15.6191 79.2988 15.6855 79.0723C15.752 78.8418 15.8457 78.625 15.9668 78.4219C16.0918 78.2188 16.2383 78.041 16.4062 77.8887L16.8223 78.1934C16.6426 78.4355 16.5059 78.6797 16.4121 78.9258C16.3223 79.1719 16.2773 79.4492 16.2773 79.7578V80.4316H15.5859ZM17.0508 80.4316V79.7754C17.0508 79.5332 17.084 79.2988 17.1504 79.0723C17.2168 78.8418 17.3105 78.625 17.4316 78.4219C17.5566 78.2188 17.7031 78.041 17.8711 77.8887L18.2871 78.1934C18.1074 78.4355 17.9707 78.6797 17.877 78.9258C17.7871 79.1719 17.7422 79.4492 17.7422 79.7578V80.4316H17.0508ZM22.6055 82.8984H20.2031L20.1914 82.2891H22.2598C22.6816 82.2891 23.041 82.2285 23.3379 82.1074C23.6348 81.9863 23.8594 81.8066 24.0117 81.5684C24.168 81.3262 24.2461 81.0293 24.2461 80.6777C24.2461 80.3184 24.1699 80.0215 24.0176 79.7871C23.8652 79.5488 23.6367 79.373 23.332 79.2598C23.0273 79.1465 22.6445 79.0898 22.1836 79.0898H20.3906V87H19.6699V78.4688H22.1836C22.6172 78.4688 23.0059 78.5117 23.3496 78.5977C23.6934 78.6836 23.9863 78.8184 24.2285 79.002C24.4707 79.1855 24.6543 79.418 24.7793 79.6992C24.9082 79.9766 24.9727 80.3086 24.9727 80.6953C24.9727 81.0469 24.8945 81.3652 24.7383 81.6504C24.582 81.9316 24.3613 82.1621 24.0762 82.3418C23.7949 82.5176 23.457 82.627 23.0625 82.6699L22.6055 82.8984ZM22.5527 87H19.9746L20.3438 86.3848H22.5527C22.9746 86.3848 23.334 86.3145 23.6309 86.1738C23.9316 86.0293 24.1621 85.8242 24.3223 85.5586C24.4824 85.293 24.5625 84.9766 24.5625 84.6094C24.5625 84.2852 24.4922 83.9941 24.3516 83.7363C24.2109 83.4785 23.9961 83.2754 23.707 83.127C23.418 82.9746 23.0508 82.8984 22.6055 82.8984H21.1113L21.123 82.2891H23.2383L23.3672 82.5059C23.75 82.5449 24.084 82.6641 24.3691 82.8633C24.6582 83.0586 24.8809 83.3066 25.0371 83.6074C25.1973 83.9082 25.2773 84.2383 25.2773 84.5977C25.2773 85.1133 25.1621 85.5508 24.9316 85.9102C24.7051 86.2656 24.3867 86.5371 23.9766 86.7246C23.5703 86.9082 23.0957 87 22.5527 87ZM29.3145 87.1172C28.9004 87.1172 28.5195 87.041 28.1719 86.8887C27.8281 86.7363 27.5273 86.5215 27.2695 86.2441C27.0156 85.9668 26.8184 85.6387 26.6777 85.2598C26.541 84.877 26.4727 84.459 26.4727 84.0059V83.7539C26.4727 83.2656 26.5449 82.8242 26.6895 82.4297C26.834 82.0352 27.0332 81.6973 27.2871 81.416C27.541 81.1348 27.8301 80.9199 28.1543 80.7715C28.4824 80.6191 28.8262 80.543 29.1855 80.543C29.5879 80.543 29.9453 80.6152 30.2578 80.7598C30.5703 80.9004 30.832 81.1016 31.043 81.3633C31.2578 81.6211 31.4199 81.9277 31.5293 82.2832C31.6387 82.6348 31.6934 83.0234 31.6934 83.4492V83.877H26.8945V83.2793H30.9961V83.1973C30.9883 82.8418 30.916 82.5098 30.7793 82.2012C30.6465 81.8887 30.4473 81.6348 30.1816 81.4395C29.916 81.2441 29.584 81.1465 29.1855 81.1465C28.8887 81.1465 28.6152 81.209 28.3652 81.334C28.1191 81.459 27.9062 81.6387 27.7266 81.873C27.5508 82.1035 27.4141 82.3789 27.3164 82.6992C27.2227 83.0156 27.1758 83.3672 27.1758 83.7539V84.0059C27.1758 84.3574 27.2266 84.6855 27.3281 84.9902C27.4336 85.291 27.582 85.5566 27.7734 85.7871C27.9688 86.0176 28.1992 86.1973 28.4648 86.3262C28.7305 86.4551 29.0234 86.5195 29.3438 86.5195C29.7188 86.5195 30.0508 86.4512 30.3398 86.3145C30.6289 86.1738 30.8887 85.9531 31.1191 85.6523L31.5586 85.9922C31.4219 86.1953 31.25 86.3828 31.043 86.5547C30.8398 86.7266 30.5957 86.8633 30.3105 86.9648C30.0254 87.0664 29.6934 87.1172 29.3145 87.1172ZM33.7383 81.9727V87H33.0352V80.6602H33.709L33.7383 81.9727ZM33.6094 83.4375L33.2695 83.2617C33.293 82.8867 33.3633 82.5352 33.4805 82.207C33.6016 81.8789 33.7695 81.5898 33.9844 81.3398C34.1992 81.0898 34.457 80.8945 34.7578 80.7539C35.0586 80.6133 35.4004 80.543 35.7832 80.543C36.0918 80.543 36.3711 80.5859 36.6211 80.6719C36.875 80.7539 37.0898 80.8848 37.2656 81.0645C37.4453 81.2402 37.584 81.4707 37.6816 81.7559C37.7793 82.041 37.8281 82.3828 37.8281 82.7812V87H37.1309V82.8047C37.1309 82.3828 37.0645 82.0527 36.9316 81.8145C36.8027 81.5762 36.6211 81.4062 36.3867 81.3047C36.1562 81.2031 35.8887 81.1523 35.584 81.1523C35.2246 81.1523 34.9199 81.2266 34.6699 81.375C34.4238 81.5195 34.2227 81.709 34.0664 81.9434C33.9141 82.1738 33.8008 82.4219 33.7266 82.6875C33.6523 82.9492 33.6133 83.1992 33.6094 83.4375ZM37.8223 82.8867L37.3535 82.8984C37.373 82.5898 37.4434 82.2949 37.5645 82.0137C37.6895 81.7324 37.8594 81.4824 38.0742 81.2637C38.2891 81.041 38.5449 80.8652 38.8418 80.7363C39.1426 80.6074 39.4805 80.543 39.8555 80.543C40.1836 80.543 40.4766 80.5879 40.7344 80.6777C40.9922 80.7637 41.209 80.9023 41.3848 81.0938C41.5645 81.2812 41.7012 81.5215 41.7949 81.8145C41.8887 82.1074 41.9355 82.459 41.9355 82.8691V87H41.2324V82.8633C41.2324 82.4141 41.166 82.0664 41.0332 81.8203C40.9043 81.5703 40.7246 81.3965 40.4941 81.2988C40.2637 81.2012 39.9941 81.1523 39.6855 81.1523C39.3809 81.1562 39.1133 81.2129 38.8828 81.3223C38.6523 81.4277 38.459 81.5684 38.3027 81.7441C38.1504 81.916 38.0332 82.1016 37.9512 82.3008C37.873 82.5 37.8301 82.6953 37.8223 82.8867ZM48.5156 86.3262L50.5488 80.6602H51.2695L48.8965 87H48.3867L48.5156 86.3262ZM46.6758 80.6602L48.7324 86.3438L48.8438 87H48.3281L45.9492 80.6602H46.6758ZM53.2031 80.6602V87H52.5059V80.6602H53.2031ZM52.3828 78.8262C52.3828 78.6934 52.4238 78.582 52.5059 78.4922C52.5918 78.3984 52.709 78.3516 52.8574 78.3516C53.0059 78.3516 53.123 78.3984 53.209 78.4922C53.2988 78.582 53.3438 78.6934 53.3438 78.8262C53.3438 78.9551 53.2988 79.0664 53.209 79.1602C53.123 79.25 53.0059 79.2949 52.8574 79.2949C52.709 79.2949 52.5918 79.25 52.5059 79.1602C52.4238 79.0664 52.3828 78.9551 52.3828 78.8262ZM55.8164 82.0137V87H55.1191V80.6602H55.7871L55.8164 82.0137ZM55.6582 83.4375L55.3477 83.2617C55.3711 82.8867 55.4473 82.5352 55.5762 82.207C55.7051 81.8789 55.8789 81.5898 56.0977 81.3398C56.3203 81.0898 56.5801 80.8945 56.877 80.7539C57.1777 80.6133 57.5098 80.543 57.873 80.543C58.1895 80.543 58.4727 80.5859 58.7227 80.6719C58.9727 80.7578 59.1855 80.8945 59.3613 81.082C59.5371 81.2695 59.6699 81.5098 59.7598 81.8027C59.8535 82.0957 59.9004 82.4531 59.9004 82.875V87H59.1973V82.8691C59.1973 82.4316 59.1367 82.0898 59.0156 81.8438C58.8945 81.5938 58.7227 81.416 58.5 81.3105C58.2773 81.2051 58.0137 81.1523 57.709 81.1523C57.373 81.1523 57.0781 81.2266 56.8242 81.375C56.5742 81.5195 56.3633 81.709 56.1914 81.9434C56.0234 82.1738 55.8945 82.4219 55.8047 82.6875C55.7148 82.9492 55.666 83.1992 55.6582 83.4375ZM65.8359 85.7695V78H66.5391V87H65.8828L65.8359 85.7695ZM61.4355 83.8945V83.7715C61.4355 83.2793 61.4922 82.8359 61.6055 82.4414C61.7188 82.043 61.8809 81.7031 62.0918 81.4219C62.3066 81.1367 62.5645 80.9199 62.8652 80.7715C63.166 80.6191 63.5059 80.543 63.8848 80.543C64.2559 80.543 64.584 80.6035 64.8691 80.7246C65.1543 80.8457 65.3984 81.0195 65.6016 81.2461C65.8086 81.4727 65.9746 81.7422 66.0996 82.0547C66.2285 82.3672 66.3223 82.7148 66.3809 83.0977V84.6621C66.334 85.0215 66.248 85.3516 66.123 85.6523C65.998 85.9492 65.832 86.209 65.625 86.4316C65.418 86.6504 65.168 86.8203 64.875 86.9414C64.5859 87.0586 64.252 87.1172 63.873 87.1172C63.498 87.1172 63.1602 87.0391 62.8594 86.8828C62.5586 86.7266 62.3027 86.5059 62.0918 86.2207C61.8809 85.9316 61.7188 85.5898 61.6055 85.1953C61.4922 84.8008 61.4355 84.3672 61.4355 83.8945ZM62.1387 83.7715V83.8945C62.1387 84.2656 62.1758 84.6094 62.25 84.9258C62.3242 85.2422 62.4375 85.5176 62.5898 85.752C62.7422 85.9863 62.9355 86.1699 63.1699 86.3027C63.4043 86.4355 63.6816 86.502 64.002 86.502C64.4043 86.502 64.7422 86.4258 65.0156 86.2734C65.2891 86.1172 65.5078 85.9121 65.6719 85.6582C65.8359 85.4004 65.9551 85.1191 66.0293 84.8145V82.9922C65.9824 82.7852 65.9141 82.5742 65.8242 82.3594C65.7344 82.1445 65.6113 81.9473 65.4551 81.7676C65.3027 81.584 65.1074 81.4375 64.8691 81.3281C64.6348 81.2148 64.3496 81.1582 64.0137 81.1582C63.6895 81.1582 63.4102 81.2246 63.1758 81.3574C62.9414 81.4902 62.7461 81.6758 62.5898 81.9141C62.4375 82.1484 62.3242 82.4238 62.25 82.7402C62.1758 83.0566 62.1387 83.4004 62.1387 83.7715ZM67.998 83.9297V83.7363C67.998 83.2754 68.0645 82.8496 68.1973 82.459C68.3301 82.0684 68.5195 81.7305 68.7656 81.4453C69.0156 81.1602 69.3145 80.9395 69.6621 80.7832C70.0098 80.623 70.3965 80.543 70.8223 80.543C71.252 80.543 71.6406 80.623 71.9883 80.7832C72.3359 80.9395 72.6348 81.1602 72.8848 81.4453C73.1348 81.7305 73.3262 82.0684 73.459 82.459C73.5918 82.8496 73.6582 83.2754 73.6582 83.7363V83.9297C73.6582 84.3906 73.5918 84.8164 73.459 85.207C73.3262 85.5938 73.1348 85.9297 72.8848 86.2148C72.6387 86.5 72.3418 86.7227 71.9941 86.8828C71.6465 87.0391 71.2598 87.1172 70.834 87.1172C70.4043 87.1172 70.0156 87.0391 69.668 86.8828C69.3203 86.7227 69.0215 86.5 68.7715 86.2148C68.5215 85.9297 68.3301 85.5938 68.1973 85.207C68.0645 84.8164 67.998 84.3906 67.998 83.9297ZM68.6953 83.7363V83.9297C68.6953 84.2773 68.7422 84.6074 68.8359 84.9199C68.9297 85.2285 69.0664 85.5039 69.2461 85.7461C69.4258 85.9844 69.6484 86.1719 69.9141 86.3086C70.1797 86.4453 70.4863 86.5137 70.834 86.5137C71.1777 86.5137 71.4805 86.4453 71.7422 86.3086C72.0078 86.1719 72.2305 85.9844 72.4102 85.7461C72.5898 85.5039 72.7246 85.2285 72.8145 84.9199C72.9082 84.6074 72.9551 84.2773 72.9551 83.9297V83.7363C72.9551 83.3926 72.9082 83.0664 72.8145 82.7578C72.7246 82.4492 72.5879 82.1738 72.4043 81.9316C72.2246 81.6895 72.002 81.498 71.7363 81.3574C71.4707 81.2168 71.166 81.1465 70.8223 81.1465C70.4785 81.1465 70.1738 81.2168 69.9082 81.3574C69.6465 81.498 69.4238 81.6895 69.2402 81.9316C69.0605 82.1738 68.9238 82.4492 68.8301 82.7578C68.7402 83.0664 68.6953 83.3926 68.6953 83.7363ZM81.8965 85.8633V82.5938C81.8965 82.293 81.834 82.0332 81.709 81.8145C81.584 81.5957 81.4004 81.4277 81.1582 81.3105C80.916 81.1934 80.6172 81.1348 80.2617 81.1348C79.9336 81.1348 79.6406 81.1934 79.3828 81.3105C79.1289 81.4238 78.9277 81.5781 78.7793 81.7734C78.6348 81.9648 78.5625 82.1777 78.5625 82.4121L77.8594 82.4062C77.8594 82.168 77.918 81.9375 78.0352 81.7148C78.1523 81.4922 78.3184 81.293 78.5332 81.1172C78.748 80.9414 79.0039 80.8027 79.3008 80.7012C79.6016 80.5957 79.9316 80.543 80.291 80.543C80.7441 80.543 81.1426 80.6191 81.4863 80.7715C81.834 80.9238 82.1055 81.1523 82.3008 81.457C82.4961 81.7617 82.5938 82.1445 82.5938 82.6055V85.6699C82.5938 85.8887 82.6094 86.1152 82.6406 86.3496C82.6758 86.584 82.7246 86.7773 82.7871 86.9297V87H82.043C81.9961 86.8594 81.959 86.6836 81.9316 86.4727C81.9082 86.2578 81.8965 86.0547 81.8965 85.8633ZM82.0605 83.3086L82.0723 83.8477H80.6953C80.3359 83.8477 80.0137 83.8809 79.7285 83.9473C79.4473 84.0098 79.209 84.1035 79.0137 84.2285C78.8184 84.3496 78.668 84.4961 78.5625 84.668C78.4609 84.8398 78.4102 85.0352 78.4102 85.2539C78.4102 85.4805 78.4668 85.6875 78.5801 85.875C78.6973 86.0625 78.8613 86.2129 79.0723 86.3262C79.2871 86.4355 79.541 86.4902 79.834 86.4902C80.2246 86.4902 80.5684 86.418 80.8652 86.2734C81.166 86.1289 81.4141 85.9395 81.6094 85.7051C81.8047 85.4707 81.9355 85.2148 82.002 84.9375L82.3066 85.3418C82.2559 85.5371 82.1621 85.7383 82.0254 85.9453C81.8926 86.1484 81.7188 86.3398 81.5039 86.5195C81.2891 86.6953 81.0352 86.8398 80.7422 86.9531C80.4531 87.0625 80.125 87.1172 79.7578 87.1172C79.3438 87.1172 78.9824 87.0391 78.6738 86.8828C78.3691 86.7266 78.1309 86.5137 77.959 86.2441C77.791 85.9707 77.707 85.6621 77.707 85.3184C77.707 85.0059 77.7734 84.7266 77.9062 84.4805C78.0391 84.2305 78.2305 84.0195 78.4805 83.8477C78.7344 83.6719 79.0391 83.5391 79.3945 83.4492C79.7539 83.3555 80.1562 83.3086 80.6016 83.3086H82.0605ZM84.0879 83.9297V83.7363C84.0879 83.2754 84.1543 82.8496 84.2871 82.459C84.4199 82.0684 84.6094 81.7305 84.8555 81.4453C85.1055 81.1602 85.4043 80.9395 85.752 80.7832C86.0996 80.623 86.4863 80.543 86.9121 80.543C87.3418 80.543 87.7305 80.623 88.0781 80.7832C88.4258 80.9395 88.7246 81.1602 88.9746 81.4453C89.2246 81.7305 89.416 82.0684 89.5488 82.459C89.6816 82.8496 89.748 83.2754 89.748 83.7363V83.9297C89.748 84.3906 89.6816 84.8164 89.5488 85.207C89.416 85.5938 89.2246 85.9297 88.9746 86.2148C88.7285 86.5 88.4316 86.7227 88.084 86.8828C87.7363 87.0391 87.3496 87.1172 86.9238 87.1172C86.4941 87.1172 86.1055 87.0391 85.7578 86.8828C85.4102 86.7227 85.1113 86.5 84.8613 86.2148C84.6113 85.9297 84.4199 85.5938 84.2871 85.207C84.1543 84.8164 84.0879 84.3906 84.0879 83.9297ZM84.7852 83.7363V83.9297C84.7852 84.2773 84.832 84.6074 84.9258 84.9199C85.0195 85.2285 85.1562 85.5039 85.3359 85.7461C85.5156 85.9844 85.7383 86.1719 86.0039 86.3086C86.2695 86.4453 86.5762 86.5137 86.9238 86.5137C87.2676 86.5137 87.5703 86.4453 87.832 86.3086C88.0977 86.1719 88.3203 85.9844 88.5 85.7461C88.6797 85.5039 88.8145 85.2285 88.9043 84.9199C88.998 84.6074 89.0449 84.2773 89.0449 83.9297V83.7363C89.0449 83.3926 88.998 83.0664 88.9043 82.7578C88.8145 82.4492 88.6777 82.1738 88.4941 81.9316C88.3145 81.6895 88.0918 81.498 87.8262 81.3574C87.5605 81.2168 87.2559 81.1465 86.9121 81.1465C86.5684 81.1465 86.2637 81.2168 85.998 81.3574C85.7363 81.498 85.5137 81.6895 85.3301 81.9316C85.1504 82.1738 85.0137 82.4492 84.9199 82.7578C84.8301 83.0664 84.7852 83.3926 84.7852 83.7363ZM98.0625 84.457V78.4688H98.7832V84.457C98.7832 85.0312 98.6699 85.5156 98.4434 85.9102C98.2207 86.3047 97.916 86.6055 97.5293 86.8125C97.1426 87.0156 96.7012 87.1172 96.2051 87.1172C95.6973 87.1172 95.248 87.0273 94.8574 86.8477C94.4707 86.668 94.1699 86.3965 93.9551 86.0332C93.7402 85.666 93.6328 85.2031 93.6328 84.6445H94.3535C94.3535 85.0547 94.4258 85.3984 94.5703 85.6758C94.7188 85.9492 94.9316 86.1562 95.209 86.2969C95.4863 86.4336 95.8184 86.502 96.2051 86.502C96.5527 86.502 96.8652 86.4258 97.1426 86.2734C97.4238 86.1172 97.6465 85.8887 97.8105 85.5879C97.9785 85.2832 98.0625 84.9062 98.0625 84.457ZM104.596 85.8633V82.5938C104.596 82.293 104.533 82.0332 104.408 81.8145C104.283 81.5957 104.1 81.4277 103.857 81.3105C103.615 81.1934 103.316 81.1348 102.961 81.1348C102.633 81.1348 102.34 81.1934 102.082 81.3105C101.828 81.4238 101.627 81.5781 101.479 81.7734C101.334 81.9648 101.262 82.1777 101.262 82.4121L100.559 82.4062C100.559 82.168 100.617 81.9375 100.734 81.7148C100.852 81.4922 101.018 81.293 101.232 81.1172C101.447 80.9414 101.703 80.8027 102 80.7012C102.301 80.5957 102.631 80.543 102.99 80.543C103.443 80.543 103.842 80.6191 104.186 80.7715C104.533 80.9238 104.805 81.1523 105 81.457C105.195 81.7617 105.293 82.1445 105.293 82.6055V85.6699C105.293 85.8887 105.309 86.1152 105.34 86.3496C105.375 86.584 105.424 86.7773 105.486 86.9297V87H104.742C104.695 86.8594 104.658 86.6836 104.631 86.4727C104.607 86.2578 104.596 86.0547 104.596 85.8633ZM104.76 83.3086L104.771 83.8477H103.395C103.035 83.8477 102.713 83.8809 102.428 83.9473C102.146 84.0098 101.908 84.1035 101.713 84.2285C101.518 84.3496 101.367 84.4961 101.262 84.668C101.16 84.8398 101.109 85.0352 101.109 85.2539C101.109 85.4805 101.166 85.6875 101.279 85.875C101.396 86.0625 101.561 86.2129 101.771 86.3262C101.986 86.4355 102.24 86.4902 102.533 86.4902C102.924 86.4902 103.268 86.418 103.564 86.2734C103.865 86.1289 104.113 85.9395 104.309 85.7051C104.504 85.4707 104.635 85.2148 104.701 84.9375L105.006 85.3418C104.955 85.5371 104.861 85.7383 104.725 85.9453C104.592 86.1484 104.418 86.3398 104.203 86.5195C103.988 86.6953 103.734 86.8398 103.441 86.9531C103.152 87.0625 102.824 87.1172 102.457 87.1172C102.043 87.1172 101.682 87.0391 101.373 86.8828C101.068 86.7266 100.83 86.5137 100.658 86.2441C100.49 85.9707 100.406 85.6621 100.406 85.3184C100.406 85.0059 100.473 84.7266 100.605 84.4805C100.738 84.2305 100.93 84.0195 101.18 83.8477C101.434 83.6719 101.738 83.5391 102.094 83.4492C102.453 83.3555 102.855 83.3086 103.301 83.3086H104.76ZM107.865 81.8789V89.4375H107.162V80.6602H107.818L107.865 81.8789ZM112.271 83.7715V83.8945C112.271 84.3672 112.217 84.8008 112.107 85.1953C111.998 85.5898 111.84 85.9316 111.633 86.2207C111.43 86.5059 111.178 86.7266 110.877 86.8828C110.576 87.0391 110.234 87.1172 109.852 87.1172C109.473 87.1172 109.135 87.0586 108.838 86.9414C108.541 86.8242 108.285 86.6582 108.07 86.4434C107.859 86.2246 107.689 85.9707 107.561 85.6816C107.436 85.3887 107.348 85.0684 107.297 84.7207V83.0977C107.355 82.7148 107.451 82.3672 107.584 82.0547C107.717 81.7422 107.887 81.4727 108.094 81.2461C108.305 81.0195 108.555 80.8457 108.844 80.7246C109.133 80.6035 109.463 80.543 109.834 80.543C110.221 80.543 110.564 80.6191 110.865 80.7715C111.17 80.9199 111.426 81.1367 111.633 81.4219C111.844 81.7031 112.002 82.043 112.107 82.4414C112.217 82.8359 112.271 83.2793 112.271 83.7715ZM111.568 83.8945V83.7715C111.568 83.4004 111.529 83.0566 111.451 82.7402C111.377 82.4238 111.262 82.1484 111.105 81.9141C110.953 81.6758 110.758 81.4902 110.52 81.3574C110.285 81.2246 110.006 81.1582 109.682 81.1582C109.346 81.1582 109.059 81.2148 108.82 81.3281C108.586 81.4375 108.391 81.584 108.234 81.7676C108.078 81.9473 107.955 82.1445 107.865 82.3594C107.775 82.5742 107.709 82.7852 107.666 82.9922V84.8613C107.74 85.1582 107.859 85.4336 108.023 85.6875C108.188 85.9375 108.406 86.1387 108.68 86.291C108.957 86.4395 109.295 86.5137 109.693 86.5137C110.014 86.5137 110.291 86.4473 110.525 86.3145C110.76 86.1816 110.953 85.9961 111.105 85.7578C111.262 85.5195 111.377 85.2422 111.451 84.9258C111.529 84.6094 111.568 84.2656 111.568 83.8945ZM117.686 85.8633V82.5938C117.686 82.293 117.623 82.0332 117.498 81.8145C117.373 81.5957 117.189 81.4277 116.947 81.3105C116.705 81.1934 116.406 81.1348 116.051 81.1348C115.723 81.1348 115.43 81.1934 115.172 81.3105C114.918 81.4238 114.717 81.5781 114.568 81.7734C114.424 81.9648 114.352 82.1777 114.352 82.4121L113.648 82.4062C113.648 82.168 113.707 81.9375 113.824 81.7148C113.941 81.4922 114.107 81.293 114.322 81.1172C114.537 80.9414 114.793 80.8027 115.09 80.7012C115.391 80.5957 115.721 80.543 116.08 80.543C116.533 80.543 116.932 80.6191 117.275 80.7715C117.623 80.9238 117.895 81.1523 118.09 81.457C118.285 81.7617 118.383 82.1445 118.383 82.6055V85.6699C118.383 85.8887 118.398 86.1152 118.43 86.3496C118.465 86.584 118.514 86.7773 118.576 86.9297V87H117.832C117.785 86.8594 117.748 86.6836 117.721 86.4727C117.697 86.2578 117.686 86.0547 117.686 85.8633ZM117.85 83.3086L117.861 83.8477H116.484C116.125 83.8477 115.803 83.8809 115.518 83.9473C115.236 84.0098 114.998 84.1035 114.803 84.2285C114.607 84.3496 114.457 84.4961 114.352 84.668C114.25 84.8398 114.199 85.0352 114.199 85.2539C114.199 85.4805 114.256 85.6875 114.369 85.875C114.486 86.0625 114.65 86.2129 114.861 86.3262C115.076 86.4355 115.33 86.4902 115.623 86.4902C116.014 86.4902 116.357 86.418 116.654 86.2734C116.955 86.1289 117.203 85.9395 117.398 85.7051C117.594 85.4707 117.725 85.2148 117.791 84.9375L118.096 85.3418C118.045 85.5371 117.951 85.7383 117.814 85.9453C117.682 86.1484 117.508 86.3398 117.293 86.5195C117.078 86.6953 116.824 86.8398 116.531 86.9531C116.242 87.0625 115.914 87.1172 115.547 87.1172C115.133 87.1172 114.771 87.0391 114.463 86.8828C114.158 86.7266 113.92 86.5137 113.748 86.2441C113.58 85.9707 113.496 85.6621 113.496 85.3184C113.496 85.0059 113.562 84.7266 113.695 84.4805C113.828 84.2305 114.02 84.0195 114.27 83.8477C114.523 83.6719 114.828 83.5391 115.184 83.4492C115.543 83.3555 115.945 83.3086 116.391 83.3086H117.85ZM117.779 78.2051L118.307 78.2402C118.307 78.4902 118.254 78.709 118.148 78.8965C118.047 79.084 117.91 79.2305 117.738 79.3359C117.566 79.4414 117.373 79.4941 117.158 79.4941C116.951 79.4941 116.781 79.4609 116.648 79.3945C116.516 79.3281 116.396 79.2539 116.291 79.1719C116.186 79.0859 116.074 79.0117 115.957 78.9492C115.84 78.8828 115.697 78.8496 115.529 78.8496C115.35 78.8496 115.197 78.9121 115.072 79.0371C114.947 79.1582 114.885 79.3262 114.885 79.541L114.357 79.5234C114.357 79.2734 114.408 79.0566 114.51 78.873C114.611 78.6855 114.748 78.5391 114.92 78.4336C115.096 78.3281 115.291 78.2754 115.506 78.2754C115.689 78.2754 115.848 78.3086 115.98 78.375C116.117 78.4375 116.242 78.5117 116.355 78.5977C116.469 78.6836 116.586 78.7598 116.707 78.8262C116.828 78.8887 116.969 78.9199 117.129 78.9199C117.309 78.9199 117.461 78.8555 117.586 78.7266C117.715 78.5938 117.779 78.4199 117.779 78.2051ZM119.877 83.9297V83.7363C119.877 83.2754 119.943 82.8496 120.076 82.459C120.209 82.0684 120.398 81.7305 120.645 81.4453C120.895 81.1602 121.193 80.9395 121.541 80.7832C121.889 80.623 122.275 80.543 122.701 80.543C123.131 80.543 123.52 80.623 123.867 80.7832C124.215 80.9395 124.514 81.1602 124.764 81.4453C125.014 81.7305 125.205 82.0684 125.338 82.459C125.471 82.8496 125.537 83.2754 125.537 83.7363V83.9297C125.537 84.3906 125.471 84.8164 125.338 85.207C125.205 85.5938 125.014 85.9297 124.764 86.2148C124.518 86.5 124.221 86.7227 123.873 86.8828C123.525 87.0391 123.139 87.1172 122.713 87.1172C122.283 87.1172 121.895 87.0391 121.547 86.8828C121.199 86.7227 120.9 86.5 120.65 86.2148C120.4 85.9297 120.209 85.5938 120.076 85.207C119.943 84.8164 119.877 84.3906 119.877 83.9297ZM120.574 83.7363V83.9297C120.574 84.2773 120.621 84.6074 120.715 84.9199C120.809 85.2285 120.945 85.5039 121.125 85.7461C121.305 85.9844 121.527 86.1719 121.793 86.3086C122.059 86.4453 122.365 86.5137 122.713 86.5137C123.057 86.5137 123.359 86.4453 123.621 86.3086C123.887 86.1719 124.109 85.9844 124.289 85.7461C124.469 85.5039 124.604 85.2285 124.693 84.9199C124.787 84.6074 124.834 84.2773 124.834 83.9297V83.7363C124.834 83.3926 124.787 83.0664 124.693 82.7578C124.604 82.4492 124.467 82.1738 124.283 81.9316C124.104 81.6895 123.881 81.498 123.615 81.3574C123.35 81.2168 123.045 81.1465 122.701 81.1465C122.357 81.1465 122.053 81.2168 121.787 81.3574C121.525 81.498 121.303 81.6895 121.119 81.9316C120.939 82.1738 120.803 82.4492 120.709 82.7578C120.619 83.0664 120.574 83.3926 120.574 83.7363ZM127.775 78.4688L127.734 84.6211H127.09L127.049 78.4688H127.775ZM126.973 86.584C126.973 86.4512 127.014 86.3398 127.096 86.25C127.182 86.1562 127.301 86.1094 127.453 86.1094C127.602 86.1094 127.719 86.1562 127.805 86.25C127.895 86.3398 127.939 86.4512 127.939 86.584C127.939 86.7129 127.895 86.8242 127.805 86.918C127.719 87.0078 127.602 87.0527 127.453 87.0527C127.301 87.0527 127.182 87.0078 127.096 86.918C127.014 86.8242 126.973 86.7129 126.973 86.584ZM21.3867 100.385V101H16.5879V100.385H21.3867ZM16.8047 92.4688V101H16.084V92.4688H16.8047ZM20.7891 96.2949V96.9102H16.5879V96.2949H20.7891ZM21.3574 92.4688V93.0898H16.5879V92.4688H21.3574ZM26.5488 99.3828C26.5488 99.2109 26.5059 99.041 26.4199 98.873C26.334 98.7051 26.168 98.5508 25.9219 98.4102C25.6797 98.2695 25.3223 98.1504 24.8496 98.0527C24.498 97.9746 24.1836 97.8867 23.9062 97.7891C23.6328 97.6914 23.4023 97.5742 23.2148 97.4375C23.0273 97.3008 22.8848 97.1367 22.7871 96.9453C22.6895 96.7539 22.6406 96.5273 22.6406 96.2656C22.6406 96.0312 22.6914 95.8105 22.793 95.6035C22.8984 95.3926 23.0469 95.209 23.2383 95.0527C23.4336 94.8926 23.668 94.7676 23.9414 94.6777C24.2188 94.5879 24.5293 94.543 24.873 94.543C25.3613 94.543 25.7793 94.627 26.127 94.7949C26.4785 94.959 26.7461 95.1836 26.9297 95.4688C27.1172 95.7539 27.2109 96.0762 27.2109 96.4355H26.5137C26.5137 96.2168 26.4492 96.0098 26.3203 95.8145C26.1953 95.6191 26.0098 95.459 25.7637 95.334C25.5215 95.209 25.2246 95.1465 24.873 95.1465C24.5098 95.1465 24.2148 95.2012 23.9883 95.3105C23.7617 95.4199 23.5957 95.5586 23.4902 95.7266C23.3887 95.8945 23.3379 96.0684 23.3379 96.248C23.3379 96.3887 23.3594 96.5176 23.4023 96.6348C23.4492 96.748 23.5312 96.8535 23.6484 96.9512C23.7695 97.0488 23.9414 97.1406 24.1641 97.2266C24.3867 97.3125 24.6758 97.3965 25.0312 97.4785C25.543 97.5918 25.9609 97.7305 26.2852 97.8945C26.6133 98.0547 26.8555 98.2539 27.0117 98.4922C27.168 98.7266 27.2461 99.0117 27.2461 99.3477C27.2461 99.6094 27.1914 99.8496 27.082 100.068C26.9727 100.283 26.8145 100.469 26.6074 100.625C26.4043 100.781 26.1582 100.902 25.8691 100.988C25.584 101.074 25.2637 101.117 24.9082 101.117C24.373 101.117 23.9199 101.029 23.5488 100.854C23.1816 100.674 22.9023 100.439 22.7109 100.15C22.5234 99.8574 22.4297 99.5469 22.4297 99.2188H23.127C23.1504 99.5469 23.2539 99.8066 23.4375 99.998C23.6211 100.186 23.8457 100.318 24.1113 100.396C24.3809 100.475 24.6465 100.514 24.9082 100.514C25.2676 100.514 25.5684 100.461 25.8105 100.355C26.0527 100.25 26.2363 100.111 26.3613 99.9395C26.4863 99.7676 26.5488 99.582 26.5488 99.3828ZM31.2305 94.6602V95.2344H28.0547V94.6602H31.2305ZM29.2207 93.0312H29.918V99.459C29.918 99.752 29.957 99.9727 30.0352 100.121C30.1133 100.27 30.2148 100.369 30.3398 100.42C30.4648 100.471 30.5996 100.496 30.7441 100.496C30.8496 100.496 30.9512 100.49 31.0488 100.479C31.1465 100.463 31.2344 100.447 31.3125 100.432L31.3418 101.023C31.2559 101.051 31.1445 101.072 31.0078 101.088C30.8711 101.107 30.7344 101.117 30.5977 101.117C30.3281 101.117 30.0898 101.068 29.8828 100.971C29.6758 100.869 29.5137 100.697 29.3965 100.455C29.2793 100.209 29.2207 99.875 29.2207 99.4531V93.0312ZM36.5566 99.8633V96.5938C36.5566 96.293 36.4941 96.0332 36.3691 95.8145C36.2441 95.5957 36.0605 95.4277 35.8184 95.3105C35.5762 95.1934 35.2773 95.1348 34.9219 95.1348C34.5938 95.1348 34.3008 95.1934 34.043 95.3105C33.7891 95.4238 33.5879 95.5781 33.4395 95.7734C33.2949 95.9648 33.2227 96.1777 33.2227 96.4121L32.5195 96.4062C32.5195 96.168 32.5781 95.9375 32.6953 95.7148C32.8125 95.4922 32.9785 95.293 33.1934 95.1172C33.4082 94.9414 33.6641 94.8027 33.9609 94.7012C34.2617 94.5957 34.5918 94.543 34.9512 94.543C35.4043 94.543 35.8027 94.6191 36.1465 94.7715C36.4941 94.9238 36.7656 95.1523 36.9609 95.457C37.1562 95.7617 37.2539 96.1445 37.2539 96.6055V99.6699C37.2539 99.8887 37.2695 100.115 37.3008 100.35C37.3359 100.584 37.3848 100.777 37.4473 100.93V101H36.7031C36.6562 100.859 36.6191 100.684 36.5918 100.473C36.5684 100.258 36.5566 100.055 36.5566 99.8633ZM36.7207 97.3086L36.7324 97.8477H35.3555C34.9961 97.8477 34.6738 97.8809 34.3887 97.9473C34.1074 98.0098 33.8691 98.1035 33.6738 98.2285C33.4785 98.3496 33.3281 98.4961 33.2227 98.668C33.1211 98.8398 33.0703 99.0352 33.0703 99.2539C33.0703 99.4805 33.127 99.6875 33.2402 99.875C33.3574 100.062 33.5215 100.213 33.7324 100.326C33.9473 100.436 34.2012 100.49 34.4941 100.49C34.8848 100.49 35.2285 100.418 35.5254 100.273C35.8262 100.129 36.0742 99.9395 36.2695 99.7051C36.4648 99.4707 36.5957 99.2148 36.6621 98.9375L36.9668 99.3418C36.916 99.5371 36.8223 99.7383 36.6855 99.9453C36.5527 100.148 36.3789 100.34 36.1641 100.52C35.9492 100.695 35.6953 100.84 35.4023 100.953C35.1133 101.062 34.7852 101.117 34.418 101.117C34.0039 101.117 33.6426 101.039 33.334 100.883C33.0293 100.727 32.791 100.514 32.6191 100.244C32.4512 99.9707 32.3672 99.6621 32.3672 99.3184C32.3672 99.0059 32.4336 98.7266 32.5664 98.4805C32.6992 98.2305 32.8906 98.0195 33.1406 97.8477C33.3945 97.6719 33.6992 97.5391 34.0547 97.4492C34.4141 97.3555 34.8164 97.3086 35.2617 97.3086H36.7207ZM39.832 95.709V101H39.1348V94.6602H39.8145L39.832 95.709ZM42.0762 94.6133L42.0586 95.2578C41.9805 95.2461 41.9043 95.2363 41.8301 95.2285C41.7559 95.2207 41.6758 95.2168 41.5898 95.2168C41.2852 95.2168 41.0176 95.2734 40.7871 95.3867C40.5605 95.4961 40.3691 95.6504 40.2129 95.8496C40.0566 96.0449 39.9375 96.2754 39.8555 96.541C39.7734 96.8027 39.7266 97.084 39.7148 97.3848L39.457 97.4844C39.457 97.0703 39.5 96.6855 39.5859 96.3301C39.6719 95.9746 39.8027 95.6641 39.9785 95.3984C40.1582 95.1289 40.3828 94.9199 40.6523 94.7715C40.9258 94.6191 41.2461 94.543 41.6133 94.543C41.7031 94.543 41.791 94.5508 41.877 94.5664C41.9668 94.5781 42.0332 94.5938 42.0762 94.6133ZM45.5098 101.117C45.0957 101.117 44.7148 101.041 44.3672 100.889C44.0234 100.736 43.7227 100.521 43.4648 100.244C43.2109 99.9668 43.0137 99.6387 42.873 99.2598C42.7363 98.877 42.668 98.459 42.668 98.0059V97.7539C42.668 97.2656 42.7402 96.8242 42.8848 96.4297C43.0293 96.0352 43.2285 95.6973 43.4824 95.416C43.7363 95.1348 44.0254 94.9199 44.3496 94.7715C44.6777 94.6191 45.0215 94.543 45.3809 94.543C45.7832 94.543 46.1406 94.6152 46.4531 94.7598C46.7656 94.9004 47.0273 95.1016 47.2383 95.3633C47.4531 95.6211 47.6152 95.9277 47.7246 96.2832C47.834 96.6348 47.8887 97.0234 47.8887 97.4492V97.877H43.0898V97.2793H47.1914V97.1973C47.1836 96.8418 47.1113 96.5098 46.9746 96.2012C46.8418 95.8887 46.6426 95.6348 46.377 95.4395C46.1113 95.2441 45.7793 95.1465 45.3809 95.1465C45.084 95.1465 44.8105 95.209 44.5605 95.334C44.3145 95.459 44.1016 95.6387 43.9219 95.873C43.7461 96.1035 43.6094 96.3789 43.5117 96.6992C43.418 97.0156 43.3711 97.3672 43.3711 97.7539V98.0059C43.3711 98.3574 43.4219 98.6855 43.5234 98.9902C43.6289 99.291 43.7773 99.5566 43.9688 99.7871C44.1641 100.018 44.3945 100.197 44.6602 100.326C44.9258 100.455 45.2188 100.52 45.5391 100.52C45.9141 100.52 46.2461 100.451 46.5352 100.314C46.8242 100.174 47.084 99.9531 47.3145 99.6523L47.7539 99.9922C47.6172 100.195 47.4453 100.383 47.2383 100.555C47.0352 100.727 46.791 100.863 46.5059 100.965C46.2207 101.066 45.8887 101.117 45.5098 101.117ZM49.9336 95.9727V101H49.2305V94.6602H49.9043L49.9336 95.9727ZM49.8047 97.4375L49.4648 97.2617C49.4883 96.8867 49.5586 96.5352 49.6758 96.207C49.7969 95.8789 49.9648 95.5898 50.1797 95.3398C50.3945 95.0898 50.6523 94.8945 50.9531 94.7539C51.2539 94.6133 51.5957 94.543 51.9785 94.543C52.2871 94.543 52.5664 94.5859 52.8164 94.6719C53.0703 94.7539 53.2852 94.8848 53.4609 95.0645C53.6406 95.2402 53.7793 95.4707 53.877 95.7559C53.9746 96.041 54.0234 96.3828 54.0234 96.7812V101H53.3262V96.8047C53.3262 96.3828 53.2598 96.0527 53.127 95.8145C52.998 95.5762 52.8164 95.4062 52.582 95.3047C52.3516 95.2031 52.084 95.1523 51.7793 95.1523C51.4199 95.1523 51.1152 95.2266 50.8652 95.375C50.6191 95.5195 50.418 95.709 50.2617 95.9434C50.1094 96.1738 49.9961 96.4219 49.9219 96.6875C49.8477 96.9492 49.8086 97.1992 49.8047 97.4375ZM54.0176 96.8867L53.5488 96.8984C53.5684 96.5898 53.6387 96.2949 53.7598 96.0137C53.8848 95.7324 54.0547 95.4824 54.2695 95.2637C54.4844 95.041 54.7402 94.8652 55.0371 94.7363C55.3379 94.6074 55.6758 94.543 56.0508 94.543C56.3789 94.543 56.6719 94.5879 56.9297 94.6777C57.1875 94.7637 57.4043 94.9023 57.5801 95.0938C57.7598 95.2812 57.8965 95.5215 57.9902 95.8145C58.084 96.1074 58.1309 96.459 58.1309 96.8691V101H57.4277V96.8633C57.4277 96.4141 57.3613 96.0664 57.2285 95.8203C57.0996 95.5703 56.9199 95.3965 56.6895 95.2988C56.459 95.2012 56.1895 95.1523 55.8809 95.1523C55.5762 95.1562 55.3086 95.2129 55.0781 95.3223C54.8477 95.4277 54.6543 95.5684 54.498 95.7441C54.3457 95.916 54.2285 96.1016 54.1465 96.3008C54.0684 96.5 54.0254 96.6953 54.0176 96.8867ZM59.5254 97.9297V97.7363C59.5254 97.2754 59.5918 96.8496 59.7246 96.459C59.8574 96.0684 60.0469 95.7305 60.293 95.4453C60.543 95.1602 60.8418 94.9395 61.1895 94.7832C61.5371 94.623 61.9238 94.543 62.3496 94.543C62.7793 94.543 63.168 94.623 63.5156 94.7832C63.8633 94.9395 64.1621 95.1602 64.4121 95.4453C64.6621 95.7305 64.8535 96.0684 64.9863 96.459C65.1191 96.8496 65.1855 97.2754 65.1855 97.7363V97.9297C65.1855 98.3906 65.1191 98.8164 64.9863 99.207C64.8535 99.5938 64.6621 99.9297 64.4121 100.215C64.166 100.5 63.8691 100.723 63.5215 100.883C63.1738 101.039 62.7871 101.117 62.3613 101.117C61.9316 101.117 61.543 101.039 61.1953 100.883C60.8477 100.723 60.5488 100.5 60.2988 100.215C60.0488 99.9297 59.8574 99.5938 59.7246 99.207C59.5918 98.8164 59.5254 98.3906 59.5254 97.9297ZM60.2227 97.7363V97.9297C60.2227 98.2773 60.2695 98.6074 60.3633 98.9199C60.457 99.2285 60.5938 99.5039 60.7734 99.7461C60.9531 99.9844 61.1758 100.172 61.4414 100.309C61.707 100.445 62.0137 100.514 62.3613 100.514C62.7051 100.514 63.0078 100.445 63.2695 100.309C63.5352 100.172 63.7578 99.9844 63.9375 99.7461C64.1172 99.5039 64.252 99.2285 64.3418 98.9199C64.4355 98.6074 64.4824 98.2773 64.4824 97.9297V97.7363C64.4824 97.3926 64.4355 97.0664 64.3418 96.7578C64.252 96.4492 64.1152 96.1738 63.9316 95.9316C63.752 95.6895 63.5293 95.498 63.2637 95.3574C62.998 95.2168 62.6934 95.1465 62.3496 95.1465C62.0059 95.1465 61.7012 95.2168 61.4355 95.3574C61.1738 95.498 60.9512 95.6895 60.7676 95.9316C60.5879 96.1738 60.4512 96.4492 60.3574 96.7578C60.2676 97.0664 60.2227 97.3926 60.2227 97.7363ZM70.4355 99.3828C70.4355 99.2109 70.3926 99.041 70.3066 98.873C70.2207 98.7051 70.0547 98.5508 69.8086 98.4102C69.5664 98.2695 69.209 98.1504 68.7363 98.0527C68.3848 97.9746 68.0703 97.8867 67.793 97.7891C67.5195 97.6914 67.2891 97.5742 67.1016 97.4375C66.9141 97.3008 66.7715 97.1367 66.6738 96.9453C66.5762 96.7539 66.5273 96.5273 66.5273 96.2656C66.5273 96.0312 66.5781 95.8105 66.6797 95.6035C66.7852 95.3926 66.9336 95.209 67.125 95.0527C67.3203 94.8926 67.5547 94.7676 67.8281 94.6777C68.1055 94.5879 68.416 94.543 68.7598 94.543C69.248 94.543 69.666 94.627 70.0137 94.7949C70.3652 94.959 70.6328 95.1836 70.8164 95.4688C71.0039 95.7539 71.0977 96.0762 71.0977 96.4355H70.4004C70.4004 96.2168 70.3359 96.0098 70.207 95.8145C70.082 95.6191 69.8965 95.459 69.6504 95.334C69.4082 95.209 69.1113 95.1465 68.7598 95.1465C68.3965 95.1465 68.1016 95.2012 67.875 95.3105C67.6484 95.4199 67.4824 95.5586 67.377 95.7266C67.2754 95.8945 67.2246 96.0684 67.2246 96.248C67.2246 96.3887 67.2461 96.5176 67.2891 96.6348C67.3359 96.748 67.418 96.8535 67.5352 96.9512C67.6562 97.0488 67.8281 97.1406 68.0508 97.2266C68.2734 97.3125 68.5625 97.3965 68.918 97.4785C69.4297 97.5918 69.8477 97.7305 70.1719 97.8945C70.5 98.0547 70.7422 98.2539 70.8984 98.4922C71.0547 98.7266 71.1328 99.0117 71.1328 99.3477C71.1328 99.6094 71.0781 99.8496 70.9688 100.068C70.8594 100.283 70.7012 100.469 70.4941 100.625C70.291 100.781 70.0449 100.902 69.7559 100.988C69.4707 101.074 69.1504 101.117 68.7949 101.117C68.2598 101.117 67.8066 101.029 67.4355 100.854C67.0684 100.674 66.7891 100.439 66.5977 100.15C66.4102 99.8574 66.3164 99.5469 66.3164 99.2188H67.0137C67.0371 99.5469 67.1406 99.8066 67.3242 99.998C67.5078 100.186 67.7324 100.318 67.998 100.396C68.2676 100.475 68.5332 100.514 68.7949 100.514C69.1543 100.514 69.4551 100.461 69.6973 100.355C69.9395 100.25 70.123 100.111 70.248 99.9395C70.373 99.7676 70.4355 99.582 70.4355 99.3828ZM79.7695 99.7695V92H80.4727V101H79.8164L79.7695 99.7695ZM75.3691 97.8945V97.7715C75.3691 97.2793 75.4258 96.8359 75.5391 96.4414C75.6523 96.043 75.8145 95.7031 76.0254 95.4219C76.2402 95.1367 76.498 94.9199 76.7988 94.7715C77.0996 94.6191 77.4395 94.543 77.8184 94.543C78.1895 94.543 78.5176 94.6035 78.8027 94.7246C79.0879 94.8457 79.332 95.0195 79.5352 95.2461C79.7422 95.4727 79.9082 95.7422 80.0332 96.0547C80.1621 96.3672 80.2559 96.7148 80.3145 97.0977V98.6621C80.2676 99.0215 80.1816 99.3516 80.0566 99.6523C79.9316 99.9492 79.7656 100.209 79.5586 100.432C79.3516 100.65 79.1016 100.82 78.8086 100.941C78.5195 101.059 78.1855 101.117 77.8066 101.117C77.4316 101.117 77.0938 101.039 76.793 100.883C76.4922 100.727 76.2363 100.506 76.0254 100.221C75.8145 99.9316 75.6523 99.5898 75.5391 99.1953C75.4258 98.8008 75.3691 98.3672 75.3691 97.8945ZM76.0723 97.7715V97.8945C76.0723 98.2656 76.1094 98.6094 76.1836 98.9258C76.2578 99.2422 76.3711 99.5176 76.5234 99.752C76.6758 99.9863 76.8691 100.17 77.1035 100.303C77.3379 100.436 77.6152 100.502 77.9355 100.502C78.3379 100.502 78.6758 100.426 78.9492 100.273C79.2227 100.117 79.4414 99.9121 79.6055 99.6582C79.7695 99.4004 79.8887 99.1191 79.9629 98.8145V96.9922C79.916 96.7852 79.8477 96.5742 79.7578 96.3594C79.668 96.1445 79.5449 95.9473 79.3887 95.7676C79.2363 95.584 79.041 95.4375 78.8027 95.3281C78.5684 95.2148 78.2832 95.1582 77.9473 95.1582C77.623 95.1582 77.3438 95.2246 77.1094 95.3574C76.875 95.4902 76.6797 95.6758 76.5234 95.9141C76.3711 96.1484 76.2578 96.4238 76.1836 96.7402C76.1094 97.0566 76.0723 97.4004 76.0723 97.7715ZM83.0977 94.6602V101H82.4004V94.6602H83.0977ZM82.2773 92.8262C82.2773 92.6934 82.3184 92.582 82.4004 92.4922C82.4863 92.3984 82.6035 92.3516 82.752 92.3516C82.9004 92.3516 83.0176 92.3984 83.1035 92.4922C83.1934 92.582 83.2383 92.6934 83.2383 92.8262C83.2383 92.9551 83.1934 93.0664 83.1035 93.1602C83.0176 93.25 82.9004 93.2949 82.752 93.2949C82.6035 93.2949 82.4863 93.25 82.4004 93.1602C82.3184 93.0664 82.2773 92.9551 82.2773 92.8262ZM88.8105 99.3828C88.8105 99.2109 88.7676 99.041 88.6816 98.873C88.5957 98.7051 88.4297 98.5508 88.1836 98.4102C87.9414 98.2695 87.584 98.1504 87.1113 98.0527C86.7598 97.9746 86.4453 97.8867 86.168 97.7891C85.8945 97.6914 85.6641 97.5742 85.4766 97.4375C85.2891 97.3008 85.1465 97.1367 85.0488 96.9453C84.9512 96.7539 84.9023 96.5273 84.9023 96.2656C84.9023 96.0312 84.9531 95.8105 85.0547 95.6035C85.1602 95.3926 85.3086 95.209 85.5 95.0527C85.6953 94.8926 85.9297 94.7676 86.2031 94.6777C86.4805 94.5879 86.791 94.543 87.1348 94.543C87.623 94.543 88.041 94.627 88.3887 94.7949C88.7402 94.959 89.0078 95.1836 89.1914 95.4688C89.3789 95.7539 89.4727 96.0762 89.4727 96.4355H88.7754C88.7754 96.2168 88.7109 96.0098 88.582 95.8145C88.457 95.6191 88.2715 95.459 88.0254 95.334C87.7832 95.209 87.4863 95.1465 87.1348 95.1465C86.7715 95.1465 86.4766 95.2012 86.25 95.3105C86.0234 95.4199 85.8574 95.5586 85.752 95.7266C85.6504 95.8945 85.5996 96.0684 85.5996 96.248C85.5996 96.3887 85.6211 96.5176 85.6641 96.6348C85.7109 96.748 85.793 96.8535 85.9102 96.9512C86.0312 97.0488 86.2031 97.1406 86.4258 97.2266C86.6484 97.3125 86.9375 97.3965 87.293 97.4785C87.8047 97.5918 88.2227 97.7305 88.5469 97.8945C88.875 98.0547 89.1172 98.2539 89.2734 98.4922C89.4297 98.7266 89.5078 99.0117 89.5078 99.3477C89.5078 99.6094 89.4531 99.8496 89.3438 100.068C89.2344 100.283 89.0762 100.469 88.8691 100.625C88.666 100.781 88.4199 100.902 88.1309 100.988C87.8457 101.074 87.5254 101.117 87.1699 101.117C86.6348 101.117 86.1816 101.029 85.8105 100.854C85.4434 100.674 85.1641 100.439 84.9727 100.15C84.7852 99.8574 84.6914 99.5469 84.6914 99.2188H85.3887C85.4121 99.5469 85.5156 99.8066 85.6992 99.998C85.8828 100.186 86.1074 100.318 86.373 100.396C86.6426 100.475 86.9082 100.514 87.1699 100.514C87.5293 100.514 87.8301 100.461 88.0723 100.355C88.3145 100.25 88.498 100.111 88.623 99.9395C88.748 99.7676 88.8105 99.582 88.8105 99.3828ZM91.7871 95.8789V103.438H91.084V94.6602H91.7402L91.7871 95.8789ZM96.1934 97.7715V97.8945C96.1934 98.3672 96.1387 98.8008 96.0293 99.1953C95.9199 99.5898 95.7617 99.9316 95.5547 100.221C95.3516 100.506 95.0996 100.727 94.7988 100.883C94.498 101.039 94.1562 101.117 93.7734 101.117C93.3945 101.117 93.0566 101.059 92.7598 100.941C92.4629 100.824 92.207 100.658 91.9922 100.443C91.7812 100.225 91.6113 99.9707 91.4824 99.6816C91.3574 99.3887 91.2695 99.0684 91.2188 98.7207V97.0977C91.2773 96.7148 91.373 96.3672 91.5059 96.0547C91.6387 95.7422 91.8086 95.4727 92.0156 95.2461C92.2266 95.0195 92.4766 94.8457 92.7656 94.7246C93.0547 94.6035 93.3848 94.543 93.7559 94.543C94.1426 94.543 94.4863 94.6191 94.7871 94.7715C95.0918 94.9199 95.3477 95.1367 95.5547 95.4219C95.7656 95.7031 95.9238 96.043 96.0293 96.4414C96.1387 96.8359 96.1934 97.2793 96.1934 97.7715ZM95.4902 97.8945V97.7715C95.4902 97.4004 95.4512 97.0566 95.373 96.7402C95.2988 96.4238 95.1836 96.1484 95.0273 95.9141C94.875 95.6758 94.6797 95.4902 94.4414 95.3574C94.207 95.2246 93.9277 95.1582 93.6035 95.1582C93.2676 95.1582 92.9805 95.2148 92.7422 95.3281C92.5078 95.4375 92.3125 95.584 92.1562 95.7676C92 95.9473 91.877 96.1445 91.7871 96.3594C91.6973 96.5742 91.6309 96.7852 91.5879 96.9922V98.8613C91.6621 99.1582 91.7812 99.4336 91.9453 99.6875C92.1094 99.9375 92.3281 100.139 92.6016 100.291C92.8789 100.439 93.2168 100.514 93.6152 100.514C93.9355 100.514 94.2129 100.447 94.4473 100.314C94.6816 100.182 94.875 99.9961 95.0273 99.7578C95.1836 99.5195 95.2988 99.2422 95.373 98.9258C95.4512 98.6094 95.4902 98.2656 95.4902 97.8945ZM97.3652 97.9297V97.7363C97.3652 97.2754 97.4316 96.8496 97.5645 96.459C97.6973 96.0684 97.8867 95.7305 98.1328 95.4453C98.3828 95.1602 98.6816 94.9395 99.0293 94.7832C99.377 94.623 99.7637 94.543 100.189 94.543C100.619 94.543 101.008 94.623 101.355 94.7832C101.703 94.9395 102.002 95.1602 102.252 95.4453C102.502 95.7305 102.693 96.0684 102.826 96.459C102.959 96.8496 103.025 97.2754 103.025 97.7363V97.9297C103.025 98.3906 102.959 98.8164 102.826 99.207C102.693 99.5938 102.502 99.9297 102.252 100.215C102.006 100.5 101.709 100.723 101.361 100.883C101.014 101.039 100.627 101.117 100.201 101.117C99.7715 101.117 99.3828 101.039 99.0352 100.883C98.6875 100.723 98.3887 100.5 98.1387 100.215C97.8887 99.9297 97.6973 99.5938 97.5645 99.207C97.4316 98.8164 97.3652 98.3906 97.3652 97.9297ZM98.0625 97.7363V97.9297C98.0625 98.2773 98.1094 98.6074 98.2031 98.9199C98.2969 99.2285 98.4336 99.5039 98.6133 99.7461C98.793 99.9844 99.0156 100.172 99.2812 100.309C99.5469 100.445 99.8535 100.514 100.201 100.514C100.545 100.514 100.848 100.445 101.109 100.309C101.375 100.172 101.598 99.9844 101.777 99.7461C101.957 99.5039 102.092 99.2285 102.182 98.9199C102.275 98.6074 102.322 98.2773 102.322 97.9297V97.7363C102.322 97.3926 102.275 97.0664 102.182 96.7578C102.092 96.4492 101.955 96.1738 101.771 95.9316C101.592 95.6895 101.369 95.498 101.104 95.3574C100.838 95.2168 100.533 95.1465 100.189 95.1465C99.8457 95.1465 99.541 95.2168 99.2754 95.3574C99.0137 95.498 98.791 95.6895 98.6074 95.9316C98.4277 96.1738 98.291 96.4492 98.1973 96.7578C98.1074 97.0664 98.0625 97.3926 98.0625 97.7363ZM105.176 96.0137V101H104.479V94.6602H105.146L105.176 96.0137ZM105.018 97.4375L104.707 97.2617C104.73 96.8867 104.807 96.5352 104.936 96.207C105.064 95.8789 105.238 95.5898 105.457 95.3398C105.68 95.0898 105.939 94.8945 106.236 94.7539C106.537 94.6133 106.869 94.543 107.232 94.543C107.549 94.543 107.832 94.5859 108.082 94.6719C108.332 94.7578 108.545 94.8945 108.721 95.082C108.896 95.2695 109.029 95.5098 109.119 95.8027C109.213 96.0957 109.26 96.4531 109.26 96.875V101H108.557V96.8691C108.557 96.4316 108.496 96.0898 108.375 95.8438C108.254 95.5938 108.082 95.416 107.859 95.3105C107.637 95.2051 107.373 95.1523 107.068 95.1523C106.732 95.1523 106.438 95.2266 106.184 95.375C105.934 95.5195 105.723 95.709 105.551 95.9434C105.383 96.1738 105.254 96.4219 105.164 96.6875C105.074 96.9492 105.025 97.1992 105.018 97.4375ZM111.844 94.6602V101H111.146V94.6602H111.844ZM111.094 93.7168L112.213 92.0762H113.057L111.703 93.7168H111.094ZM115.617 100.326L117.65 94.6602H118.371L115.998 101H115.488L115.617 100.326ZM113.777 94.6602L115.834 100.344L115.945 101H115.43L113.051 94.6602H113.777ZM121.893 101.117C121.479 101.117 121.098 101.041 120.75 100.889C120.406 100.736 120.105 100.521 119.848 100.244C119.594 99.9668 119.396 99.6387 119.256 99.2598C119.119 98.877 119.051 98.459 119.051 98.0059V97.7539C119.051 97.2656 119.123 96.8242 119.268 96.4297C119.412 96.0352 119.611 95.6973 119.865 95.416C120.119 95.1348 120.408 94.9199 120.732 94.7715C121.061 94.6191 121.404 94.543 121.764 94.543C122.166 94.543 122.523 94.6152 122.836 94.7598C123.148 94.9004 123.41 95.1016 123.621 95.3633C123.836 95.6211 123.998 95.9277 124.107 96.2832C124.217 96.6348 124.271 97.0234 124.271 97.4492V97.877H119.473V97.2793H123.574V97.1973C123.566 96.8418 123.494 96.5098 123.357 96.2012C123.225 95.8887 123.025 95.6348 122.76 95.4395C122.494 95.2441 122.162 95.1465 121.764 95.1465C121.467 95.1465 121.193 95.209 120.943 95.334C120.697 95.459 120.484 95.6387 120.305 95.873C120.129 96.1035 119.992 96.3789 119.895 96.6992C119.801 97.0156 119.754 97.3672 119.754 97.7539V98.0059C119.754 98.3574 119.805 98.6855 119.906 98.9902C120.012 99.291 120.16 99.5566 120.352 99.7871C120.547 100.018 120.777 100.197 121.043 100.326C121.309 100.455 121.602 100.52 121.922 100.52C122.297 100.52 122.629 100.451 122.918 100.314C123.207 100.174 123.467 99.9531 123.697 99.6523L124.137 99.9922C124 100.195 123.828 100.383 123.621 100.555C123.418 100.727 123.174 100.863 122.889 100.965C122.604 101.066 122.271 101.117 121.893 101.117ZM126.434 94.6602V101H125.736V94.6602H126.434ZM125.613 92.8262C125.613 92.6934 125.654 92.582 125.736 92.4922C125.822 92.3984 125.939 92.3516 126.088 92.3516C126.236 92.3516 126.354 92.3984 126.439 92.4922C126.529 92.582 126.574 92.6934 126.574 92.8262C126.574 92.9551 126.529 93.0664 126.439 93.1602C126.354 93.25 126.236 93.2949 126.088 93.2949C125.939 93.2949 125.822 93.25 125.736 93.1602C125.654 93.0664 125.613 92.9551 125.613 92.8262ZM132.146 99.3828C132.146 99.2109 132.104 99.041 132.018 98.873C131.932 98.7051 131.766 98.5508 131.52 98.4102C131.277 98.2695 130.92 98.1504 130.447 98.0527C130.096 97.9746 129.781 97.8867 129.504 97.7891C129.23 97.6914 129 97.5742 128.812 97.4375C128.625 97.3008 128.482 97.1367 128.385 96.9453C128.287 96.7539 128.238 96.5273 128.238 96.2656C128.238 96.0312 128.289 95.8105 128.391 95.6035C128.496 95.3926 128.645 95.209 128.836 95.0527C129.031 94.8926 129.266 94.7676 129.539 94.6777C129.816 94.5879 130.127 94.543 130.471 94.543C130.959 94.543 131.377 94.627 131.725 94.7949C132.076 94.959 132.344 95.1836 132.527 95.4688C132.715 95.7539 132.809 96.0762 132.809 96.4355H132.111C132.111 96.2168 132.047 96.0098 131.918 95.8145C131.793 95.6191 131.607 95.459 131.361 95.334C131.119 95.209 130.822 95.1465 130.471 95.1465C130.107 95.1465 129.812 95.2012 129.586 95.3105C129.359 95.4199 129.193 95.5586 129.088 95.7266C128.986 95.8945 128.936 96.0684 128.936 96.248C128.936 96.3887 128.957 96.5176 129 96.6348C129.047 96.748 129.129 96.8535 129.246 96.9512C129.367 97.0488 129.539 97.1406 129.762 97.2266C129.984 97.3125 130.273 97.3965 130.629 97.4785C131.141 97.5918 131.559 97.7305 131.883 97.8945C132.211 98.0547 132.453 98.2539 132.609 98.4922C132.766 98.7266 132.844 99.0117 132.844 99.3477C132.844 99.6094 132.789 99.8496 132.68 100.068C132.57 100.283 132.412 100.469 132.205 100.625C132.002 100.781 131.756 100.902 131.467 100.988C131.182 101.074 130.861 101.117 130.506 101.117C129.971 101.117 129.518 101.029 129.146 100.854C128.779 100.674 128.5 100.439 128.309 100.15C128.121 99.8574 128.027 99.5469 128.027 99.2188H128.725C128.748 99.5469 128.852 99.8066 129.035 99.998C129.219 100.186 129.443 100.318 129.709 100.396C129.979 100.475 130.244 100.514 130.506 100.514C130.865 100.514 131.166 100.461 131.408 100.355C131.65 100.25 131.834 100.111 131.959 99.9395C132.084 99.7676 132.146 99.582 132.146 99.3828ZM141.217 99.8633V96.5938C141.217 96.293 141.154 96.0332 141.029 95.8145C140.904 95.5957 140.721 95.4277 140.479 95.3105C140.236 95.1934 139.938 95.1348 139.582 95.1348C139.254 95.1348 138.961 95.1934 138.703 95.3105C138.449 95.4238 138.248 95.5781 138.1 95.7734C137.955 95.9648 137.883 96.1777 137.883 96.4121L137.18 96.4062C137.18 96.168 137.238 95.9375 137.355 95.7148C137.473 95.4922 137.639 95.293 137.854 95.1172C138.068 94.9414 138.324 94.8027 138.621 94.7012C138.922 94.5957 139.252 94.543 139.611 94.543C140.064 94.543 140.463 94.6191 140.807 94.7715C141.154 94.9238 141.426 95.1523 141.621 95.457C141.816 95.7617 141.914 96.1445 141.914 96.6055V99.6699C141.914 99.8887 141.93 100.115 141.961 100.35C141.996 100.584 142.045 100.777 142.107 100.93V101H141.363C141.316 100.859 141.279 100.684 141.252 100.473C141.229 100.258 141.217 100.055 141.217 99.8633ZM141.381 97.3086L141.393 97.8477H140.016C139.656 97.8477 139.334 97.8809 139.049 97.9473C138.768 98.0098 138.529 98.1035 138.334 98.2285C138.139 98.3496 137.988 98.4961 137.883 98.668C137.781 98.8398 137.73 99.0352 137.73 99.2539C137.73 99.4805 137.787 99.6875 137.9 99.875C138.018 100.062 138.182 100.213 138.393 100.326C138.607 100.436 138.861 100.49 139.154 100.49C139.545 100.49 139.889 100.418 140.186 100.273C140.486 100.129 140.734 99.9395 140.93 99.7051C141.125 99.4707 141.256 99.2148 141.322 98.9375L141.627 99.3418C141.576 99.5371 141.482 99.7383 141.346 99.9453C141.213 100.148 141.039 100.34 140.824 100.52C140.609 100.695 140.355 100.84 140.062 100.953C139.773 101.062 139.445 101.117 139.078 101.117C138.664 101.117 138.303 101.039 137.994 100.883C137.689 100.727 137.451 100.514 137.279 100.244C137.111 99.9707 137.027 99.6621 137.027 99.3184C137.027 99.0059 137.094 98.7266 137.227 98.4805C137.359 98.2305 137.551 98.0195 137.801 97.8477C138.055 97.6719 138.359 97.5391 138.715 97.4492C139.074 97.3555 139.477 97.3086 139.922 97.3086H141.381ZM150.58 99.8633V96.5938C150.58 96.293 150.518 96.0332 150.393 95.8145C150.268 95.5957 150.084 95.4277 149.842 95.3105C149.6 95.1934 149.301 95.1348 148.945 95.1348C148.617 95.1348 148.324 95.1934 148.066 95.3105C147.812 95.4238 147.611 95.5781 147.463 95.7734C147.318 95.9648 147.246 96.1777 147.246 96.4121L146.543 96.4062C146.543 96.168 146.602 95.9375 146.719 95.7148C146.836 95.4922 147.002 95.293 147.217 95.1172C147.432 94.9414 147.688 94.8027 147.984 94.7012C148.285 94.5957 148.615 94.543 148.975 94.543C149.428 94.543 149.826 94.6191 150.17 94.7715C150.518 94.9238 150.789 95.1523 150.984 95.457C151.18 95.7617 151.277 96.1445 151.277 96.6055V99.6699C151.277 99.8887 151.293 100.115 151.324 100.35C151.359 100.584 151.408 100.777 151.471 100.93V101H150.727C150.68 100.859 150.643 100.684 150.615 100.473C150.592 100.258 150.58 100.055 150.58 99.8633ZM150.744 97.3086L150.756 97.8477H149.379C149.02 97.8477 148.697 97.8809 148.412 97.9473C148.131 98.0098 147.893 98.1035 147.697 98.2285C147.502 98.3496 147.352 98.4961 147.246 98.668C147.145 98.8398 147.094 99.0352 147.094 99.2539C147.094 99.4805 147.15 99.6875 147.264 99.875C147.381 100.062 147.545 100.213 147.756 100.326C147.971 100.436 148.225 100.49 148.518 100.49C148.908 100.49 149.252 100.418 149.549 100.273C149.85 100.129 150.098 99.9395 150.293 99.7051C150.488 99.4707 150.619 99.2148 150.686 98.9375L150.99 99.3418C150.939 99.5371 150.846 99.7383 150.709 99.9453C150.576 100.148 150.402 100.34 150.188 100.52C149.973 100.695 149.719 100.84 149.426 100.953C149.137 101.062 148.809 101.117 148.441 101.117C148.027 101.117 147.666 101.039 147.357 100.883C147.053 100.727 146.814 100.514 146.643 100.244C146.475 99.9707 146.391 99.6621 146.391 99.3184C146.391 99.0059 146.457 98.7266 146.59 98.4805C146.723 98.2305 146.914 98.0195 147.164 97.8477C147.418 97.6719 147.723 97.5391 148.078 97.4492C148.438 97.3555 148.84 97.3086 149.285 97.3086H150.744ZM153.211 94.6602H153.914V101.756C153.914 102.143 153.85 102.471 153.721 102.74C153.592 103.01 153.404 103.213 153.158 103.35C152.912 103.49 152.609 103.561 152.25 103.561C152.152 103.561 152.047 103.551 151.934 103.531C151.82 103.512 151.717 103.484 151.623 103.449L151.635 102.863C151.705 102.883 151.789 102.9 151.887 102.916C151.98 102.936 152.072 102.945 152.162 102.945C152.389 102.945 152.58 102.9 152.736 102.811C152.893 102.725 153.01 102.594 153.088 102.418C153.17 102.242 153.211 102.021 153.211 101.756V94.6602ZM153.088 92.8262C153.088 92.6934 153.131 92.582 153.217 92.4922C153.303 92.3984 153.42 92.3516 153.568 92.3516C153.717 92.3516 153.834 92.3984 153.92 92.4922C154.01 92.582 154.055 92.6934 154.055 92.8262C154.055 92.9551 154.01 93.0664 153.92 93.1602C153.834 93.25 153.717 93.2949 153.568 93.2949C153.42 93.2949 153.303 93.25 153.217 93.1602C153.131 93.0664 153.088 92.9551 153.088 92.8262ZM159.961 99.5352V94.6602H160.664V101H159.99L159.961 99.5352ZM160.09 98.3633L160.453 98.3516C160.453 98.75 160.406 99.1172 160.312 99.4531C160.219 99.7891 160.072 100.082 159.873 100.332C159.674 100.582 159.416 100.775 159.1 100.912C158.783 101.049 158.402 101.117 157.957 101.117C157.648 101.117 157.365 101.074 157.107 100.988C156.854 100.898 156.635 100.758 156.451 100.566C156.268 100.375 156.125 100.127 156.023 99.8223C155.926 99.5176 155.877 99.1484 155.877 98.7148V94.6602H156.574V98.7266C156.574 99.0664 156.611 99.3496 156.686 99.5762C156.764 99.8027 156.869 99.9844 157.002 100.121C157.139 100.258 157.295 100.355 157.471 100.414C157.646 100.473 157.836 100.502 158.039 100.502C158.555 100.502 158.961 100.402 159.258 100.203C159.559 100.004 159.771 99.7422 159.896 99.418C160.025 99.0898 160.09 98.7383 160.09 98.3633ZM166.617 99.7695V92H167.32V101H166.664L166.617 99.7695ZM162.217 97.8945V97.7715C162.217 97.2793 162.273 96.8359 162.387 96.4414C162.5 96.043 162.662 95.7031 162.873 95.4219C163.088 95.1367 163.346 94.9199 163.646 94.7715C163.947 94.6191 164.287 94.543 164.666 94.543C165.037 94.543 165.365 94.6035 165.65 94.7246C165.936 94.8457 166.18 95.0195 166.383 95.2461C166.59 95.4727 166.756 95.7422 166.881 96.0547C167.01 96.3672 167.104 96.7148 167.162 97.0977V98.6621C167.115 99.0215 167.029 99.3516 166.904 99.6523C166.779 99.9492 166.613 100.209 166.406 100.432C166.199 100.65 165.949 100.82 165.656 100.941C165.367 101.059 165.033 101.117 164.654 101.117C164.279 101.117 163.941 101.039 163.641 100.883C163.34 100.727 163.084 100.506 162.873 100.221C162.662 99.9316 162.5 99.5898 162.387 99.1953C162.273 98.8008 162.217 98.3672 162.217 97.8945ZM162.92 97.7715V97.8945C162.92 98.2656 162.957 98.6094 163.031 98.9258C163.105 99.2422 163.219 99.5176 163.371 99.752C163.523 99.9863 163.717 100.17 163.951 100.303C164.186 100.436 164.463 100.502 164.783 100.502C165.186 100.502 165.523 100.426 165.797 100.273C166.07 100.117 166.289 99.9121 166.453 99.6582C166.617 99.4004 166.736 99.1191 166.811 98.8145V96.9922C166.764 96.7852 166.695 96.5742 166.605 96.3594C166.516 96.1445 166.393 95.9473 166.236 95.7676C166.084 95.584 165.889 95.4375 165.65 95.3281C165.416 95.2148 165.131 95.1582 164.795 95.1582C164.471 95.1582 164.191 95.2246 163.957 95.3574C163.723 95.4902 163.527 95.6758 163.371 95.9141C163.219 96.1484 163.105 96.4238 163.031 96.7402C162.957 97.0566 162.92 97.4004 162.92 97.7715ZM173.021 99.8633V96.5938C173.021 96.293 172.959 96.0332 172.834 95.8145C172.709 95.5957 172.525 95.4277 172.283 95.3105C172.041 95.1934 171.742 95.1348 171.387 95.1348C171.059 95.1348 170.766 95.1934 170.508 95.3105C170.254 95.4238 170.053 95.5781 169.904 95.7734C169.76 95.9648 169.688 96.1777 169.688 96.4121L168.984 96.4062C168.984 96.168 169.043 95.9375 169.16 95.7148C169.277 95.4922 169.443 95.293 169.658 95.1172C169.873 94.9414 170.129 94.8027 170.426 94.7012C170.727 94.5957 171.057 94.543 171.416 94.543C171.869 94.543 172.268 94.6191 172.611 94.7715C172.959 94.9238 173.23 95.1523 173.426 95.457C173.621 95.7617 173.719 96.1445 173.719 96.6055V99.6699C173.719 99.8887 173.734 100.115 173.766 100.35C173.801 100.584 173.85 100.777 173.912 100.93V101H173.168C173.121 100.859 173.084 100.684 173.057 100.473C173.033 100.258 173.021 100.055 173.021 99.8633ZM173.186 97.3086L173.197 97.8477H171.82C171.461 97.8477 171.139 97.8809 170.854 97.9473C170.572 98.0098 170.334 98.1035 170.139 98.2285C169.943 98.3496 169.793 98.4961 169.688 98.668C169.586 98.8398 169.535 99.0352 169.535 99.2539C169.535 99.4805 169.592 99.6875 169.705 99.875C169.822 100.062 169.986 100.213 170.197 100.326C170.412 100.436 170.666 100.49 170.959 100.49C171.35 100.49 171.693 100.418 171.99 100.273C172.291 100.129 172.539 99.9395 172.734 99.7051C172.93 99.4707 173.061 99.2148 173.127 98.9375L173.432 99.3418C173.381 99.5371 173.287 99.7383 173.15 99.9453C173.018 100.148 172.844 100.34 172.629 100.52C172.414 100.695 172.16 100.84 171.867 100.953C171.578 101.062 171.25 101.117 170.883 101.117C170.469 101.117 170.107 101.039 169.799 100.883C169.494 100.727 169.256 100.514 169.084 100.244C168.916 99.9707 168.832 99.6621 168.832 99.3184C168.832 99.0059 168.898 98.7266 169.031 98.4805C169.164 98.2305 169.355 98.0195 169.605 97.8477C169.859 97.6719 170.164 97.5391 170.52 97.4492C170.879 97.3555 171.281 97.3086 171.727 97.3086H173.186ZM177.779 96.9336V97.5371H174.973V96.9336H177.779ZM179.824 92V101H179.127V92H179.824ZM181.354 97.9297V97.7363C181.354 97.2754 181.42 96.8496 181.553 96.459C181.686 96.0684 181.875 95.7305 182.121 95.4453C182.371 95.1602 182.67 94.9395 183.018 94.7832C183.365 94.623 183.752 94.543 184.178 94.543C184.607 94.543 184.996 94.623 185.344 94.7832C185.691 94.9395 185.99 95.1602 186.24 95.4453C186.49 95.7305 186.682 96.0684 186.814 96.459C186.947 96.8496 187.014 97.2754 187.014 97.7363V97.9297C187.014 98.3906 186.947 98.8164 186.814 99.207C186.682 99.5938 186.49 99.9297 186.24 100.215C185.994 100.5 185.697 100.723 185.35 100.883C185.002 101.039 184.615 101.117 184.189 101.117C183.76 101.117 183.371 101.039 183.023 100.883C182.676 100.723 182.377 100.5 182.127 100.215C181.877 99.9297 181.686 99.5938 181.553 99.207C181.42 98.8164 181.354 98.3906 181.354 97.9297ZM182.051 97.7363V97.9297C182.051 98.2773 182.098 98.6074 182.191 98.9199C182.285 99.2285 182.422 99.5039 182.602 99.7461C182.781 99.9844 183.004 100.172 183.27 100.309C183.535 100.445 183.842 100.514 184.189 100.514C184.533 100.514 184.836 100.445 185.098 100.309C185.363 100.172 185.586 99.9844 185.766 99.7461C185.945 99.5039 186.08 99.2285 186.17 98.9199C186.264 98.6074 186.311 98.2773 186.311 97.9297V97.7363C186.311 97.3926 186.264 97.0664 186.17 96.7578C186.08 96.4492 185.943 96.1738 185.76 95.9316C185.58 95.6895 185.357 95.498 185.092 95.3574C184.826 95.2168 184.521 95.1465 184.178 95.1465C183.834 95.1465 183.529 95.2168 183.264 95.3574C183.002 95.498 182.779 95.6895 182.596 95.9316C182.416 96.1738 182.279 96.4492 182.186 96.7578C182.096 97.0664 182.051 97.3926 182.051 97.7363ZM188.391 92V92.6738C188.391 92.9121 188.357 93.1465 188.291 93.377C188.225 93.6074 188.129 93.8242 188.004 94.0273C187.883 94.2266 187.738 94.4043 187.57 94.5605L187.154 94.2559C187.334 94.0098 187.469 93.7656 187.559 93.5234C187.648 93.2773 187.693 93 187.693 92.6914V92H188.391ZM189.82 92V92.6738C189.82 92.9121 189.787 93.1465 189.721 93.377C189.654 93.6074 189.559 93.8242 189.434 94.0273C189.312 94.2266 189.168 94.4043 189 94.5605L188.584 94.2559C188.764 94.0098 188.898 93.7656 188.988 93.5234C189.078 93.2773 189.123 93 189.123 92.6914V92H189.82Z" fill="black"/>
</svg>
